<svg xmlns="http://www.w3.org/2000/svg" width="667" height="940" fill="none" xmlns:v="https://vecta.io/nano"><style><![CDATA[.B{fill:#fb0f44}.C{fill:#af9da4}.D{fill:#ba022d}.E{fill:#faf9fa}.F{fill:#f81b4c}]]></style><path d="M136.523 18.004l-2.294.169c-5.833.138-9.733.518-14.562 4.022l-2.14 1.806c-7.502 6.137-10.693 15.448-13.112 24.529l-1.366 5.398-2.949 11.876-.476 1.997c-13.823 57.92-22.455 123.027-2.704 180.429 2.212 6.215 4.243 11.945 4.626 18.566-1.177 4.551-2.761 6.868-6.489 9.553-1.378.959-2.739 1.942-4.085 2.944-6.139 5.714-8.96 11.309-10.033 19.587 1.014 8.398 4.114 14.842 10.033 20.789l1.934 1.881 1.911 1.964c1.895 1.645 1.895 1.645 2.884 3.846-.776 4.739-2.74 8.573-5.069 12.74l-1.239 2.16-3.951 6.924-1.276 2.209c-8.242 14.448-16.628 27.825-29.958 38.068l-3.664 2.825-16.529 12.541c-8.044 5.823-16.161 11.386-21.942 19.627-3.65 6.471-4.995 12.882-3.432 20.199 6.025 21.006 28.046 38.893 45.877 49.79 25.79 15.099 51.393 18.956 80.211 11.597l2.981-.771 6.398-1.65 9.973-2.575 6.563-1.69 3.139-.814c5.785-1.473 11.312-2.781 16.506-5.832l-50.945 252.83-12.143 13.428-2.336 2.734-2.136 2.482c-2.337 3.551-2.836 6.679-2.239 10.887l.703 2.673.794 3.033.896 3.216c3.057 11.122 6.846 21.756 11.557 32.282l1.059 2.326c7.158 15.753 16.23 30.512 26.557 44.382l1.319 1.762c6.226 8.348 12.551 16.579 19.337 24.481l5.94 7.073 4.224 5.198 2.219 2.662c5.084 6.122 10.064 12.446 17.543 15.67 8.261 2.101 16.058 1.476 23.454-2.682l2.755-1.681 3.125-1.889c12.558-7.616 25.297-14.732 38.432-21.315l3.125-1.562c26.017-13.101 52.66-24.586 80.397-33.572l3.231-1.035c15.066-4.872 30.262-9.065 45.638-12.845l2.014-.494 20.497-4.979c34.282-8.179 69.177-17.174 100.66-33.362l2.29-1.194c23.867-12.378 47.379-27.841 65.184-48.246l3.064-3.665c11.602-12.238 21.871-25.56 29.783-40.492l2.935-5.577c19.735-36.502 23.2-77.414 13.731-117.492l-1.428-6.098c-1.983-8.781-4.605-16.725-8.614-24.792l-3.603-7.324-4.457-9.258-1.82-3.761-4.251-8.788-1.129-2.331 2.295-.856c4.413-1.873 6.428-5.414 8.279-9.718.937-6.511.691-11.721-3.169-17.128l-1.397-1.678c-1.721-2.123-3.128-3.307-5.538-4.634l-11.143-5.285-2.844-1.377c-4.889-2.298-9.85-4.203-13.315-8.49-2.005-2.745-2.005-2.745-4.096-4.51h0c-6.863-4.944-12.596-10.477-17.854-17.101-3.244-4.159-6.634-8.158-10.093-12.137-3.449-3.929-6.563-7.842-9.372-12.257h1.922c4.905-1.938 9.517-4.228 12.496-8.652.971-5.338 1.803-11.112 0-16.343-3.448-7.467-16.341-14.9-16.882-15.801s-5.046-5.168-5.046-5.168c-17.851-17.42-29.716-38.538-40.552-60.744l4.549-2.11 1.879-.894c6.009-2.723 9.914-5.616 12.935-11.712 2.161-6.887 2.563-11.762-.259-18.57-2.508-5.109-5.059-8.59-10.528-10.769-11.872-4.325-20.871-11.265-29.855-20.019l-2.632-2.618c-3.444-3.42-7.707-6.726-9.621-11.269-.333-2.163-.333-2.163 2.003-4.566 4.304-4.755 7.463-10.377 9.42-16.489 1.233-8.27.829-16.011-3.844-23.072-9.933-10.157-11.023-18.068-11.054-32.046l-.098-9.029-.113-5.94c-.199-13.791-1.338-27.482-3.485-41.111l-.51-3.02c-2.307-13.731-5.172-27.353-8.054-40.973l-.777-3.669-2.257-10.669-.721-3.345c-1.226-5.851-2.53-11.5-4.707-17.08-2.578-6.281-6.652-10.68-12.922-13.368l-2.403-.481v-1.923l-6.552-.141-2.7-.039c-4.684-.13-8.694-.314-13.108 1.393l-2.632 1.671c-6.666 4.108-12.582 8.496-18.083 14.059-2.181 2.309-4.341 4.596-6.721 6.7-4.941 4.249-9.561 8.718-14.126 13.368-3.3 3.36-6.567 6.747-10.089 9.876-5.05 4.34-9.754 8.928-14.423 13.676-3.458 3.518-6.876 7.075-10.566 10.353-5.399 4.63-10.396 9.575-15.387 14.641-3.771 3.829-7.483 7.731-11.511 11.293-3.464 2.944-6.761 5.973-9.951 9.217l-1.502 1.537-6.113 6.253-4.663 4.801-1.48 1.504a57.66 57.66 0 0 1-5.152 4.81c-3.692.424-3.692.424-5.318-1.302-4.408-5.614-9.349-10.635-14.381-15.682l-3.084-3.097-10.22-10.266-.511-.512-3.077-3.087-16.8-16.845-19.445-19.511-15.185-15.243-.998-.999-8.06-8.081-8.602-8.64-3.211-3.205-5.76-5.778c-6.827-6.507-14.423-13.702-24.355-13.494z" fill="#101010"/><g class="E"><path d="M133 38c5.714 4.058 10.752 8.467 15.682 13.439l2.186 2.18 7.073 7.092 4.96 4.961 10.361 10.384 13.241 13.261 10.231 10.244 4.881 4.887 6.833 6.854 2.01 2.01c3.829 3.855 7.48 7.819 11.027 11.935 2.078 2.404 4.234 4.732 6.39 7.065 4.922 5.399 9.544 11 14.125 16.688l4.75 5.812 2.23 2.735 5.082 6.015C256 166 256 166 256 168l13.397-.153 4.554-.043 6.561-.097 3.983-.048c4.372-.822 5.672-2.306 8.505-5.659l4.18-4.145 4.695-4.667 2.355-2.331c4.166-4.148 8.141-8.376 11.974-12.832 3.416-3.852 7.085-7.457 10.734-11.087l2.302-2.315c3.486-3.48 6.995-6.878 10.733-10.088 4.758-4.097 9.125-8.562 13.527-13.035 5.11-5.192 10.243-10.248 15.771-14.994 2.184-1.903 4.213-3.928 6.229-6.006 3.382-3.429 6.881-6.621 10.535-9.754 2.073-1.842 4.019-3.77 5.965-5.746 3.161-3.204 6.435-6.2 9.848-9.133 3.37-2.924 6.656-5.942 9.953-8.949C416.293 43 416.293 43 420 43l2-4h4c7.634 30.662 13.345 61.485 16 93l.214 2.472c2.119 25.716 2.276 53.082-2.214 78.528l2.23-.656 2.958-.844 2.917-.844c2.748-.623 5.091-.779 7.895-.656-1.352 4.084-3.069 6.377-6.188 9.312A161.9 161.9 0 0 0 438 232l-1.902 2.184c-2.732 3.667-4.759 7.57-6.848 11.628l-1.246 2.389L425 254l6 2 3.375-3.312 1.898-1.864c1.908-1.912 1.908-1.912 3.727-4.824 3.024 1.334 4.911 2.727 7.059 5.23l1.67 1.936 1.709 2.022 1.697 1.962c2.653 3.1 5.16 6.214 7.467 9.58 2.109 3.013 4.392 5.155 7.336 7.395 4.775 3.771 9.292 7.734 13.75 11.875l1.892 1.747c1.495 1.395 2.96 2.821 4.42 4.253v1l-8.125 1-2.305.289-2.265.273-2.063.254c-2.753.226-5.481.212-8.242.184l11.19 21.584 5.732 11.076c5.366 10.363 10.958 20.574 16.752 30.704C505 371.18 505 371.18 505 375l1.738.195c3.195 1.137 4.379 3.017 6.45 5.68l2.374 3.012L518 387l4.688 5.688c3.562 4.349 6.995 8.773 10.312 13.312l-1 2-27-7c11.994 25.345 29.533 46.813 48.504 67.285 2.105 2.289 4.157 4.607 6.184 6.965 2.318 2.689 4.751 5.167 7.312 7.625 7.584 7.516 12.719 16.834 17.938 26.063l3.941 6.898 1.017 1.779 10.448 17.72C614.04 558.277 625.206 580.721 631 607l.746 3.348C637.171 640.539 631.68 674.53 616 701l-1.364 2.314C605.162 719.289 594.812 733.556 582 747l-2.32 2.516C557.941 772.359 528.736 786.193 500 798l-4.598 1.957c-9.079 3.807-18.237 7.054-27.683 9.832l-3.53 1.041c-12.448 3.617-25.02 6.699-37.615 9.756-22.509 5.47-44.886 11.276-67.136 17.726l-3.343.965-9.286 2.711-2.722.794c-4.87 1.45-9.444 3.156-14.087 5.218-1.45.514-2.908 1.009-4.375 1.473-4.606 1.5-9.115 3.199-13.625 4.965l-2.25.869c-4.55 1.773-9.028 3.668-13.481 5.673l-6.855 3.028C277.663 869.184 266.282 874.873 255 881l-1.892 1.023L244 887c-.605-1.809-.605-1.809-1-4 .913-1.658 1.841-3.309 2.84-4.917 1.268-2.276 2.079-4.503 2.914-6.97 2.425-6.814 5.426-13.318 8.496-19.863l.875-1.869L264 837l1.19-2.492c5.053-10.442 11.594-19.48 18.81-28.508l1.323-1.678C296.953 789.657 310.467 775.516 326 765l2.095-1.427C340.987 754.892 354.488 747.608 369 742c-11.579-.396-21.604 2.109-32.691 5.116-4.983 1.335-9.912 2.392-14.997 3.259-5.525 1.062-10.477 2.661-15.624 4.875l-1.884.798c-4.804 2.182-8.931 5.07-13.209 8.141-3.316 2.314-6.755 4.37-10.229 6.437C270.354 776.601 261.445 782.977 253 791l-1.866 1.742C222.54 819.59 209.174 851.295 205 890c-2.844-1.277-4.74-2.524-6.777-4.879l-1.536-1.765-1.625-1.918-1.718-2.011C162.087 842.492 138.305 802.892 141 753c.824-8.169 2.893-16.079 5-24-6.734 3.442-12.256 8.128-18 13l-1.751 1.474C106.907 759.753 92.75 778.208 80 800l-3-1c-1.178-2.799-2.158-5.487-3.062-8.375l-.8-2.487C71.257 782.15 69.751 776.242 69 770l-.332-2.688c-3.636-34.127 7.293-67.793 28.467-94.661 6.815-8.407 14.308-16.165 21.927-23.839l1.699-1.712c3.993-3.977 3.993-3.977 6.239-5.1l-3.625.438-2.039.246a79.71 79.71 0 0 0-4.926.832C99.494 645.918 82.562 643.514 66 640l-1-3 3.121-1.363C97.769 622.373 123.17 600.755 144 576l2.48-2.887c4.955-5.78 9.8-11.639 14.52-17.613l1.384-1.743c2.455-3.132 4.652-6.295 6.616-9.757l-3.324-.586-4.364-.789-2.185-.383c-3.926-.717-7.466-1.581-11.127-3.242 3.708-3.296 7.609-5.427 11.993-7.653C170.076 526.185 177.158 521.062 184 512l2.035-2.559c4.52-5.997 7.4-12.409 9.965-19.441l1.098-2.617c1.345-5.045 1.373-10.057 1.527-15.258l.117-3.242L199 461c-14.885 1.612-29.393 5.349-43.963 8.681C92.889 483.858 92.889 483.858 61 464c-2.068-1.603-4.029-3.276-6-5 2-2 2-2 4.125-3.188C65.767 451.625 70.539 447.066 74 440l-1.943.035c-7.464.075-14.812-.39-22.245-1.035l-3.463-.289L38 438c3.883-4.108 8.067-7.42 12.625-10.75 9.402-6.965 18.402-14.256 27.051-22.145 2.037-1.845 4.107-3.636 6.199-5.417 13.566-11.946 22.476-24.023 29.465-40.782 1.479-3.541 3.148-6.965 4.848-10.406 3.39-7.226 5.118-14.738 6.812-22.5h3l2 4c-.364-10.586-2.355-18.285-8.5-26.938-2.636-4.34-2.636-4.34-2.071-7.339l1.055-2.43c2.867-7.129 5.293-14.331 7.53-21.68l1.537-4.705c3.561-9.953 3.561-9.953 2.042-20.063-1.921-3.793-4.273-7.287-6.593-10.845-1.363-3.043-2.353-6.105-3.25-9.312l-.716-2.459c-3.073-11.18-4.601-22.74-6.034-34.229l-.264-2.044c-.658-5.41-.896-10.731-.904-16.179l-.013-2.588-.007-8.251.004-2.864C113.911 121.177 116.181 71.638 133 38z"/><path d="M416 455c35.366-.634 35.366-.634 42.316 3.316 1.934 2.083 3.235 4.234 4.684 6.684l2.641 3.711L475 482c10.8 15.538 21.865 30.347 35 44l1.471 1.537c7.963 8.746 7.963 8.746 17.529 15.463 3.138-.669 3.138-.669 4.195-3.17l1.145-2.869 1.277-3.179 1.321-3.407 1.353-3.439c3.81-9.848 6.693-19.57 8.709-29.936l3 1a72.34 72.34 0 0 1 2.664 7.176l.72 2.186 2.241 6.95 1.523 4.655c9.025 27.64 6.004 55.106-7.052 80.969-4.989 9.396-11.155 18.012-18.096 26.064l-2.523 2.93c-23.657 26.904-56.837 41.096-88.622 56.027-21.73 10.222-43.346 20.803-64.493 32.189-5.276 2.819-10.626 5.47-15.999 8.1l-4.808 2.365-7.204 3.516c-9.561 4.611-18.249 9.579-26.715 16.002C319 749 319 749 317 749v2l-1.585.623-7.29 2.939-2.492.979c-5.584 2.29-10.253 5.119-15.124 8.672-3.273 2.331-6.692 4.359-10.143 6.413C270.354 776.601 261.445 782.977 253 791l-1.866 1.742C222.54 819.59 209.174 851.295 205 890c-2.844-1.277-4.74-2.524-6.777-4.879l-1.536-1.765-1.625-1.919-1.718-2.01C162.087 842.492 138.305 802.892 141 753c.824-8.169 2.893-16.079 5-24-6.734 3.442-12.256 8.128-18 13l-1.751 1.474C106.907 759.753 92.75 778.208 80 800l-3-1c-1.178-2.8-2.158-5.488-3.062-8.375l-.8-2.487C71.257 782.15 69.751 776.242 69 770l-.332-2.688c-3.636-34.127 7.293-67.793 28.467-94.661 6.815-8.407 14.308-16.165 21.927-23.839l1.699-1.712c3.993-3.977 3.993-3.977 6.239-5.1l-3.625.437-2.039.247a79.71 79.71 0 0 0-4.926.832C99.494 645.918 82.562 643.514 66 640l-1-3 3.121-1.363C97.769 622.373 123.17 600.755 144 576l2.48-2.887c4.955-5.78 9.8-11.639 14.52-17.613l1.384-1.743c2.455-3.132 4.652-6.295 6.616-9.757l-3.324-.586-4.364-.789-2.185-.383c-3.926-.717-7.466-1.581-11.127-3.242 13.72-11.764 30.801-17.513 48-22-1.787 10.226-4.004 20.315-6.405 30.412a180.34 180.34 0 0 0-1.388 6.666C185.95 564.297 180.429 570.071 173 577l-2.902 2.742c-3.258 2.994-6.414 5.802-10.098 8.258 5.642-.582 10.818-1.646 16.25-3.25 5.705-1.645 11.413-3.169 17.191-4.534 8.82-2.089 17.217-4.719 25.645-8.069 1.952-.766 3.931-1.464 5.914-2.147l2 1c-14.214 14.66-29.781 26.109-47 37 29.351-7.365 58.105-15.558 82-35l4-3c.513 23.752-1.327 45.933-7 69 7.237-11.747 14.142-23.499 20-36l1.192-2.455c3.315-6.991 5.708-14.042 7.808-21.483l1.031-3.616c3.582-12.986 5.891-26.141 7.969-39.446 13.498 17.251 18.105 47.465 19.625 68.75l.227 3.047L317 610c16.006-14.921 25.117-41.454 31-62h3l3.875 9.5 1.105 2.687c1.851 4.576 3.42 9.024 4.523 13.833.956 3.809 2.355 7.475 3.685 11.167L375 617l-2.971 1.402-1.982.935-4.432 2.091-12.324 5.826-20.373 9.504C313.541 645.539 295.608 657.126 278 669l-5.25 3.5-2.203 1.469L269 675c3.426 0 4.556-.699 7.465-2.414l2.656-1.549 2.817-1.662c9.501-5.511 18.831-10.828 29.128-14.734l3.46-1.319L318 652l6.184-2.395L344 642l3.011-1.156c9.562-3.657 19.013-7.011 28.989-9.344 15.746-3.698 30.572-9.743 45.375-16.188l3.151-1.367c6.749-2.998 12.897-6.37 18.888-10.683 6.903-4.915 14.227-7.443 22.178-10.211 8.551-3.008 16.454-6.732 24.408-11.051l1.81-.952c9.58-5.04 17.866-11.166 26.19-18.048-3.305-2.204-5.837-2.817-9.688-3.75C486.688 553.671 467.76 543.452 450 530l-3.031-2.203C423.634 510.725 395.58 488.29 381 463c6.907.584 13.653 1.56 20.461 2.848l2.888.533 9.026 1.681 9.09 1.692 5.63 1.052 2.571.475 2.25.422c2.393.391 2.393.391 6.084.297l-3.254-2.012-4.308-2.676-2.135-1.318c-4.562-2.838-9.046-5.711-13.303-8.994v-2z"/></g><path d="M326.312 385.562l3.534.018c9.316.134 9.316.134 13.154 2.42-37.866 24.282-37.866 24.282-54.312 24.062l-2.676-.027L284 412v2l1.555.41c6.547 1.841 12.829 4.22 19.144 6.725 14.834 5.879 29.836 11.209 44.936 16.361l9.879 3.402c14.562 4.997 29.248 9.946 44.674 11.352l2.3.23c9.812.873 19.672.702 29.512.52-4.365-4.47-8.802-8.757-13.543-12.824-2.671-2.366-5.264-4.803-7.859-7.252-10.859-10.243-22.357-18.984-34.588-27.515L371 399c3.153-1.577 6.227-.35 9.562.312 14.737 2.925 29.302 4.041 44.304 4.004l7.896.045c12.635.047 25.417-.496 37.238-5.361 2.812-.125 2.812-.125 5 0-2.299 2.602-4.428 3.791-7.633 5.086l-2.691 1.133-5.625 2.289-2.684 1.14-2.465 1.006c-2.131 1.231-2.131 1.231-2.761 3.82-.204 3.655 1.258 5.336 3.297 8.338 13.175 20.287 21.218 43.508 28.898 66.315.569 1.604 1.232 3.173 1.914 4.732C486 494 486 494 485 497c-5.187-6.799-10.218-13.684-15.125-20.688-6.426-9.57-6.426-9.57-13.875-18.312-2.753-.392-5.486-.719-8.25-1l-2.527-.263c-9.721-.961-19.465-1.368-29.223-1.737 2.717 2.873 5.428 5.085 8.766 7.199l2.695 1.725 2.789 1.763 5.516 3.512 2.462 1.558L440 472v1c-9.981-.743-19.734-2.68-29.562-4.5l-7.867-1.447-4.862-.898c-5.223-.956-10.426-1.617-15.709-2.155 12.019 15.66 26.039 30.711 41.156 43.426 1.323 1.129 2.611 2.298 3.875 3.492C452.83 535.17 483.622 552.727 518 561v3a61.78 61.78 0 0 1-5.688 4.937l-1.883 1.453c-14.366 10.753-30.11 18.112-46.82 24.454-6.884 2.615-13.577 5.214-19.671 9.406-19.174 12.472-42.471 22.227-64.746 27.399-10.747 2.501-21.013 5.888-31.339 9.752l-7.849 2.896c-9.389 3.459-18.62 7.157-27.746 11.263-2.669 1.18-5.329 2.257-8.07 3.252C292.299 663.475 280.77 670.189 270 677l-2-2c10.036-7.068 20.199-13.87 30.688-20.25l2.689-1.639L310 648l1.724-1.013c11.288-6.6 22.937-12.264 34.776-17.8l7.99-3.76 4.915-2.308c4.904-2.299 9.759-4.679 14.595-7.119l-4.48-12.64-1.519-4.286-2.204-6.219-.726-2.05-5.313-14.553c-.728-2.163-1.224-4.259-1.633-6.502-1.014-5.153-3.07-9.874-5.093-14.698C351 550.184 351 550.184 351 548h-3l-.312 2.875C344.405 572.847 330.081 593.85 318 612c-2.838-2.838-2.588-5.866-2.938-9.688-2.322-21.732-7.3-44.645-17.062-64.312l-1.25 5.75-.844 3.891c-.633 2.981-1.208 5.968-1.75 8.968C289.137 584.042 278.907 620.23 258 640l.871-3.785c1.226-5.524 2.224-11.079 3.191-16.653l.526-2.947c1.918-11.001 2.552-21.569 2.474-32.74l-.013-3.766L265 571l-1.762 1.611c-19.746 17.845-45.352 26.644-70.676 33.326l-3.65.968-3.408.872-3.068.789C180 609 180 609 178 608l1.753-1.051C195.586 597.46 195.586 597.46 210 586l1.672-1.499c7.257-6.222 7.257-6.222 13.328-13.501l-3.031 1.25c-11.984 4.754-24.162 7.993-36.672 10.996l-2.015.484-1.973.473c-5.171 1.241-10.253 2.612-15.31 4.254-2.7.733-5.223.762-7.999.543l2.105-1.645c3.172-2.581 6.198-5.276 9.207-8.043l1.608-1.451c1.728-1.587 3.404-3.219 5.08-4.861l2.049-1.889c6.353-6.341 8.264-13.104 10.263-21.674l1.006-4.022c2.252-9.066 4.266-18.179 5.682-27.415l-1.605.567-7.207 2.495-2.526.893-2.432.83-2.237.778C177 524 177 524 174 523l1.941-2.055c8.841-9.512 15.557-18.602 20.059-30.945l1.098-2.617c1.345-5.045 1.373-10.057 1.527-15.258l.117-3.242L199 461c-14.885 1.612-29.393 5.349-43.963 8.681C92.889 483.857 92.889 483.857 61 464c-2.068-1.603-4.029-3.276-6-5l2-2c3.427.365 4.224 1.209 6.875 3.687 11.441 10.297 26.743 11.117 41.304 10.531 7.033-.543 13.746-2.546 20.533-4.37 6.126-1.58 12.305-2.936 18.477-4.326l11.42-2.6 2.213-.506 17.928-4.166 2.514-.596c4.718-1.131 9.382-2.39 14.048-3.717 43.15-11.367 82.72-5.546 124.481 8.118 3.066.903 6.045 1.494 9.207 1.945v-2l-1.727-.754c-2.619-1.436-4.475-3.133-6.648-5.184-5.635-5.159-11.567-9.832-17.608-14.5l-6.529-5.093C285.429 427.162 277.349 420.921 269 415c1.129-3.388 1.545-3.622 4.473-5.348l2.203-1.32 2.386-1.395 4.938-2.949 2.531-1.505c4.345-2.61 8.623-5.328 12.901-8.046l3.667-2.266a85.87 85.87 0 0 0 3.897-2.555c6.627-4.273 12.587-4.275 20.316-4.054z" class="C"/><path d="M562 538c7.804 7.466 9.642 18.835 11.91 29.078.93 3.752 2.462 7.094 4.076 10.596 1.694 3.885 2.905 7.882 4.076 11.951l.779 2.693c2.659 9.71 3.855 19.565 4.865 29.563.254 2.303.254 2.303 1.294 5.119 5.289 29.842 1.675 59.892-12 87l-1.143 2.331C563.768 740.904 546.349 761.028 525 778l-6.312 5.25-2.864 2.391L513 788l-1.583 1.303c-3.051 2.489-3.051 2.489-5.819 5.279-7.888 7.001-21.262 10.136-31.133 13.152l-3.375 1.034c-13.36 4.014-26.893 7.33-40.433 10.673-24.003 5.931-47.909 12.109-71.657 18.997l-3.304.953-9.134 2.668-2.654.774c-4.809 1.433-9.322 3.133-13.908 5.167-1.45.514-2.908 1.009-4.375 1.473-4.606 1.5-9.115 3.199-13.625 4.965l-2.25.869c-4.55 1.773-9.028 3.668-13.481 5.673l-6.855 3.028C277.663 869.184 266.282 874.873 255 881l-1.892 1.023L244 887c-.605-1.809-.605-1.809-1-4 .913-1.658 1.841-3.309 2.84-4.917 1.268-2.276 2.079-4.503 2.914-6.97 2.425-6.814 5.426-13.318 8.496-19.863l.875-1.869L264 837l1.19-2.492c5.053-10.442 11.594-19.48 18.81-28.508l1.323-1.678C296.953 789.657 310.468 775.516 326 765l2.095-1.427C340.987 754.892 354.488 747.608 369 742c-9.017-.309-16.762.827-25.43 3.211-8.881 2.433-17.292 4.585-26.57 4.789 13.534-10.916 28.045-18.309 43.625-25.938l13.602-6.714 3.336-1.646c8.128-4.021 16.165-8.194 24.173-12.448 6.516-3.457 13.103-6.771 19.702-10.066l2.035-1.019c9.687-4.843 19.439-9.515 29.277-14.044 43.502-20.035 84.853-44.729 102.492-91.979 5.618-15.897 6.657-31.361 6.758-48.146z" class="B"/><path d="M490.156 344.031c-1.474-2.857-1.474-2.857-3.156-5.031-2.676-.876-4.326-1.136-7.078-.582-7.353 2.605-14.887 4.383-22.496 6.053L455 345c-15.938 3.568-31.455 4.712-47.779 4.972L405 350v1c8.154 3.344 16.296 6.612 23.614 11.581 16.488 11.53 34.132 20.073 52.933 27.138L485 391c-2.855 1.817-5.705 3.361-8.812 4.687L473 397l1 2c-3.253 1.66-6.483 3.342-9.835 4.796l-2.001.852-4.102 1.789c-3.531 1.444-6.496 2.344-8.187 5.985.125 2.578.125 2.578 1.277 4.91 8.334 11.579 14.089 24.486 19.135 37.775L471 457l2.938 7.812 3.991 10.534.969 2.42 1.914 4.796c1.143 2.79 2.278 5.563 3.188 8.438.47 3.455.561 6.243 2.312 9.266L488 502.25l1.945 2.328L492 507c10.645 13.807 23.094 26.458 37 37l1.789-.531c2.723-1.809 2.723-1.809 4.748-6.775l.838-2.194 2.723-7.055L540 525c2.906-7.872 6.022-15.725 6.875-24.125L547 497l2 1c.644 1.633 1.274 3.273 1.827 4.939l.669 2.096 2.19 6.7 2.238 6.88 1.447 4.42c2.007 6.212 3.902 12.582 6.875 18.406 2.735 4.869 4.423 9.585 5.816 14.996.858 3.43 1.695 6.844 2.829 10.196 4.544 11.977 9.467 24.464 11.359 37.179.409 3.417.837 6.803 1.453 10.188 3.859 20.867 6.166 40.814 2.748 61.94l-.639 3.685c-1.369 8.027-3.296 15.264-6.596 22.722L580 705c-10.134 23.162-22.802 43.652-41.938 60.5l-6.328 5.582c-4.676 4.307-9.459 8.303-14.546 12.105-4.461 3.277-7.802 6.489-11.188 10.813 3.069-.408 5.796-.921 8.69-2.041l2.732-1.295 3.08-1.459 3.248-1.58c20.347-9.874 40.209-21.59 55.93-38.109L582 747c12.812-13.444 23.162-27.711 32.636-43.686L616 701c15.68-26.47 21.171-60.461 15.746-90.652L631 607c-5.794-26.279-16.96-48.723-30.656-71.665l-10.448-17.72-1.017-1.779-3.941-6.899c-5.219-9.228-10.354-18.546-17.938-26.062-2.561-2.459-4.994-4.936-7.312-7.625-2.027-2.358-4.079-4.676-6.184-6.965-18.971-20.472-36.51-41.94-48.504-67.285l27 7 1-2a305.54 305.54 0 0 0-10.312-13.313L518 387l-2.438-3.113-2.374-3.012c-2.071-2.663-3.255-4.543-6.45-5.68l-2.603-5.017c-1.971-3.344-3.887-6.704-5.686-10.143l-1.605-3.129-3.344-6.406-1.684-3.32-1.66-3.149zM209 641l1 2-4 7.25-2.523 4.41-1.277 2.231c-15.389 27.041-20.228 56.364-20.825 87.109l-.117 4.984L181 761h2l.688-2.375c1.722-4.758 3.969-9.145 6.312-13.625l1.465-2.8c10.877-20.371 10.877-20.371 16.535-23.2-1.505 4.937-3.5 9.611-5.528 14.347-4.178 9.781-8.004 19.297-10.472 29.653l-1.527 6.191-3.203 13.247-.669 2.808c-1.434 6.571-1.734 12.697-1.699 19.402l.005 3.069.031 9.658.013 6.566L185 840h2l.215-2.367c1.071-4.958 3.145-9.208 5.347-13.758l1.37-2.842c3.501-7.135 7.308-13.651 12.068-20.033l2.332-3.188c5.74-7.727 12.007-14.87 18.668-21.812l2.754-2.879C235.82 766.917 242.215 761.395 249 756l2.539-2.137C264.405 743.038 277.711 733.98 293 727l5.473-2.535c13.802-6.352 27.552-12.357 42.027-17.027l3.375-1.131c17.506-5.668 35.805-8.171 53.937-10.995l5.909-.931L426 691c-3.431 2.81-7.2 4.721-11.16 6.66l-2.112 1.048-4.47 2.21-11.707 5.809-2.31 1.148c-5.941 2.961-11.822 6.021-17.668 9.166-5.353 2.853-10.777 5.546-16.225 8.213l-4.802 2.361-7.194 3.511c-9.561 4.611-18.25 9.58-26.716 16.003C319 749 320 750 318 750c0 .66-1 .32-1 1l-1.585.623-7.29 2.939-2.492.979c-5.584 2.29-10.253 5.12-15.124 8.672-3.273 2.331-6.692 4.36-10.143 6.413C270.354 776.601 261.445 782.977 253 791l-1.866 1.742C222.54 819.59 209.174 851.295 205 890c-2.844-1.277-4.74-2.524-6.777-4.879l-1.536-1.765-1.625-1.918-1.718-2.011C162.087 842.492 138.305 802.892 141 753c.824-8.169 2.893-16.079 5-24-6.734 3.442-12.256 8.128-18 13l-1.751 1.474C106.907 759.753 92.75 778.208 80 800l-3-1a92.12 92.12 0 0 1-3.062-8.375l-.8-2.487C71.257 782.15 69.751 776.242 69 770l-.332-2.688c-.295-2.77-.5-5.531-.668-8.312l-.234-3.184-.141-3.191-.148-2.898c.73-3.804 2.722-5.103 5.523-7.727 1.748-2.359 3.3-4.836 4.875-7.312C88.72 718.161 102.685 708.068 120 699l2.551-1.346 26.953-13.959C171.907 672.277 191.36 659.104 209 641zM133 38c5.715 4.058 10.752 8.467 15.682 13.439l2.186 2.18 7.074 7.092 4.96 4.961 10.361 10.384 13.241 13.261 10.23 10.244 4.881 4.887 6.833 6.854 2.011 2.01c3.829 3.855 7.479 7.819 11.026 11.935 2.078 2.404 4.234 4.732 6.39 7.065 4.923 5.399 9.544 11 14.125 16.688l4.75 5.812 2.231 2.739c1.662 2.015 3.36 3.985 5.082 5.949C256 166 256 166 256 169c-6.261 2.297-12.354 4.138-18.937 5.25C214.48 178.564 193.046 190.017 175 204l-2.953 2.277c-13.264 10.542-22.314 22.364-31.449 36.418l-2.16 3.305-1.879 2.938L135 251h-2c-11.396-19.09-15.27-39.113-18-61l-.263-2.044c-.659-5.41-.896-10.731-.905-16.179l-.013-2.588-.006-8.251.004-2.864C113.911 121.177 116.182 71.638 133 38z" class="C"/><path d="M582 589.312c-1.442-5.081-2.639-9.156-6-13.312.431 21.381.665 42.231-3.462 63.314L572 642c-1.966 10.559-5.059 20.745-8.218 30.998l-.657 2.127c-4.088 13.313-8.801 26.238-14.751 38.849l-1.186 2.464C541.281 728.759 535 738.5 527.5 745.5c-.896.836-2.5 2.438-5.5 5-18.751 16.013-57.399 21.36-81.031 24.457l-18.145 2.594L420 778c-10.116 1.576-20.155 3.398-30.188 5.438l-21.593 4.083-23.666 4.293-3.053.624c-6.112 1.165-10.997 2.323-15.922 6.244L324 800c-11.211 8.422-22.107 17.116-32.362 26.688l-6.993 6.386c-3.653 3.144-7.205 6.326-10.579 9.77L272 845l-4.669 4.882-1.643 1.743c-2.851 2.971-5.287 5.516-7.043 9.273L258 863h-2c-3.265 3.103-6.289 6.465-8.188 10.562-.697 2.388-.697 2.388-1.843 4.157-1.073 1.711-2.027 3.495-2.969 5.281.387 2.215.387 2.215 1 4l9.108-4.977L255 881c11.282-6.127 22.663-11.816 34.414-16.992l6.855-3.028c4.453-2.005 8.931-3.9 13.481-5.673l2.25-.869c4.51-1.766 9.019-3.465 13.625-4.965 1.467-.464 2.925-.959 4.375-1.473 4.586-2.034 9.099-3.734 13.908-5.167l2.654-.774 9.134-2.668 3.304-.953c23.748-6.888 47.654-13.066 71.657-18.997l1.359-.335c13.086-3.231 26.161-6.458 39.074-10.338l3.375-1.034c9.871-3.016 23.245-6.151 31.133-13.152 2.768-2.79 2.768-2.79 5.819-5.279L513 788l2.824-2.359 2.864-2.391L525 778c21.349-16.972 38.768-37.096 50.857-61.669L577 714c13.675-27.108 17.289-57.158 12-87-1.04-2.816-1.04-2.816-1.294-5.119-1.019-10.084-2.248-20.009-4.914-29.807l-.792-2.762z" fill="#a00228"/><path d="M326.312 385.562l3.534.018c9.316.134 9.316.134 13.154 2.42-37.866 24.282-37.866 24.282-54.312 24.062l-2.676-.027L284 412v2l1.555.41c6.638 1.866 13.01 4.278 19.405 6.837 3.786 1.511 7.558 2.952 11.442 4.19 9.263 3.011 14.615 6.725 20.598 14.563l4.5 4.75c8.828 9.843 14.886 21.372 20.5 33.25-10.088-2.411-20.038-5.251-30-8.125l-7.124-2.049-4.394-1.265L315 465l-2.289-.699c-1.955-.484-1.955-.484-4.711.699l-2.094.355c-4.271.948-8.301 2.458-12.406 3.957l-2.551.897c-6.286 2.292-10.876 4.43-14.094 10.56-1.791 3.888-3.205 7.857-4.543 11.918C266.694 509.071 259.724 525.025 251 540l-1.992 3.426c-3.079 4.766-5.31 7.974-11.008 9.261-1.663.156-3.331.262-5 .313l-2.203.23c-6.297.445-9.555-2.291-14.109-6.23-2.457-1.828-4.568-2.918-7.356-4.125l-2.458-1.07L205 541l-6.25 7.687-1.777 2.186-1.739 2.139-1.693 2.075a222.88 222.88 0 0 0-3.838 4.932L188 562h-2c.561-6.273 1.656-12.014 3.375-18.063 2.356-8.578 4.138-17.17 5.625-25.937l-1.605.567-7.207 2.495-2.526.893-2.432.83-2.237.778C177 524 177 524 174 523l1.941-2.055c8.841-9.512 15.557-18.602 20.059-30.945l1.098-2.617c1.345-5.045 1.373-10.057 1.527-15.258l.117-3.242L199 461c-14.885 1.612-29.393 5.349-43.963 8.681C92.889 483.857 92.889 483.857 61 464c-2.068-1.603-4.029-3.276-6-5l2-2c3.427.365 4.224 1.209 6.875 3.687 11.441 10.297 26.743 11.117 41.304 10.531 7.033-.543 13.746-2.546 20.533-4.37 6.126-1.58 12.305-2.936 18.477-4.326l11.42-2.6 2.213-.506 17.928-4.166 2.514-.596c4.718-1.131 9.382-2.39 14.048-3.717 43.15-11.367 82.72-5.546 124.481 8.118 3.066.903 6.045 1.494 9.207 1.945v-2l-1.727-.754c-2.619-1.436-4.475-3.133-6.648-5.184-5.635-5.159-11.567-9.832-17.608-14.5l-6.529-5.093C285.429 427.162 277.349 420.921 269 415c1.129-3.388 1.545-3.622 4.473-5.348l2.203-1.32 2.386-1.395 4.938-2.949 2.531-1.505c4.345-2.61 8.623-5.328 12.901-8.046l3.667-2.266a85.87 85.87 0 0 0 3.897-2.555c6.627-4.273 12.587-4.275 20.316-4.054zM423 38l3 1c.888 2.312.888 2.312 1.613 5.43l.835 3.545.864 3.9.454 2.002C435.59 79.637 439.782 105.68 442 132l.214 2.472c2.12 25.716 2.276 53.082-2.214 78.528l2.23-.656 2.958-.844 2.917-.844c2.748-.623 5.091-.779 7.895-.656-1.352 4.084-3.069 6.377-6.188 9.312A161.9 161.9 0 0 0 438 232l-1.902 2.184c-2.732 3.667-4.759 7.57-6.848 11.628l-1.246 2.389L425 254c-6.039.125-11.602-.23-17.535-1.312l-2.316-.404-7.211-1.284-4.936-.867L381 248c.575-3.214 1.416-4.759 3.809-6.961l1.751-1.659 1.878-1.755c7.711-7.436 15.052-15.79 19.562-25.625l-3.375 2.062c-1.898 1.161-1.898 1.161-3.625 1.938l-2-1c.524-4.287 1.878-6.45 4.688-9.688 7.616-9.215 12.435-19.49 17.312-30.312-2.396 1.864-4.692 3.672-6.773 5.887-3.297 3.129-7.041 5.467-10.852 7.925l-2.352 1.561-2.25 1.459-2.049 1.335L395 194l-2-1 .883-1.844c3.549-7.589 6.525-15.33 9.392-23.195l1.53-4.036c1.465-3.787 2.658-7.412 3.383-11.425l.48-2.594L409 148c-5.442 2.842-9.554 6.105-13.938 10.375-4.214 4.01-8.37 7.861-13.132 11.223-3.281 2.384-6.342 5.049-9.438 7.668-2.744 1.909-5.29 2.824-8.492 3.734 2.425-10.66 5.676-21.069 8.878-31.515l2.765-9.049 4.5-14.655 2.459-8.034c2.774-9.026 5.776-17.806 9.648-26.434l1.427-3.211c3.727-8.191 8.079-15.681 13.058-23.155 2.352-3.619 4.521-7.348 6.703-11.071l1.252-2.119c1.764-3.006 3.427-5.994 4.97-9.123C421 40 421 40 423 38zM285 284l1 3c-1.617 2.41-1.617 2.41-3.875 5.062-2.856 3.276-2.856 3.276-5.125 6.938h56c-2.635 2.635-4.718 4.654-7.66 6.742l-2.127 1.521-2.275 1.612-4.856 3.477-2.533 1.813-19.437 14.275-5.729 4.197c-4.259 3.128-8.347 6.167-12.008 9.988-19.275 20.113-51.428 22.405-77.75 23l-4.289.117L184 366l1-4-11 4c2.244-5.609 2.244-5.609 4.434-8.355l1.45-1.86 1.554-1.973c4.532-5.861 8.505-11.859 12.25-18.25 10.746-18.08 26.858-27.229 46.847-32.742 3.124-.739 6.159-1.227 9.34-1.632 11.999-1.84 26.496-8.559 35.125-17.188zM133 38c14.889 10.558 14.889 10.558 16.571 20.133.759 5.068 1.363 10.149 1.929 15.242.7 6.246 1.441 12.445 2.555 18.633 1.054 6.168 1.396 12.243 1.57 18.492l.115 3.62c.52 18.952.344 37.923.26 56.88-7.505-4.035-7.505-4.035-10.465-7.758l-1.736-2.148-1.736-2.219-1.725-2.148-3.478-4.373-6.301-7.909-2.057-2.57L127 140c-.547 17.316-.738 33.379 4.428 50.11.59 1.95 1.092 3.91 1.572 5.89-8.263-3.989-15.279-9.385-19-18-2.545-11.854-.981-24.831-.145-36.815.195-2.94.316-5.882.438-8.826C115.804 103.353 119.982 64.037 133 38z" class="B"/><path d="M436 734c-3.139 3.472-6.789 4.486-11.125 5.938C398.504 749.229 374.099 763.424 351 779l-1.787 1.196c-5.181 3.494-9.69 7.176-14.025 11.679-4.305 4.462-8.875 7.932-13.941 11.447-9.124 6.335-17.36 13.593-25.489 21.135a251.36 251.36 0 0 1-6.57 5.856C271.816 845.095 271.816 845.095 258 863c-2.794 3.01-5.642 5.637-9 8 1.333-4.208 2.907-8.177 4.758-12.184l1.633-3.538 1.734-3.715.891-1.907L264 837l1.199-2.514C270.249 824.053 276.79 815.021 284 806l1.323-1.678C296.953 789.658 310.468 775.516 326 765l2.095-1.427c18.108-12.193 37.227-22.037 58.815-25.96 2.986-.451 2.986-.451 5.09-1.613 3.608-.507 7.245-.762 10.875-1.062l3.232-.271c9.978-.778 19.892-.866 29.893-.667z" fill="#f8f4f5"/><path d="M440 246c3.024 1.334 4.911 2.727 7.059 5.23l1.67 1.936 1.709 2.022 1.697 1.962c2.653 3.1 5.16 6.214 7.467 9.58 2.109 3.013 4.392 5.155 7.336 7.395 4.775 3.771 9.292 7.734 13.75 11.875l1.892 1.747c1.495 1.395 2.96 2.821 4.42 4.253v1l-8.125 1-2.305.289-2.265.273-2.063.254c-2.753.226-5.481.212-8.242.184l1.19 2.272 4.462 8.55 1.914 3.662c4.399 8.4 8.542 16.866 12.434 25.516-9.159-1.66-17.457-6.74-24.938-12.125-8.668-6.21-18.031-11.198-27.349-16.357l-7.014-4.034C410.078 293.899 394.519 286.97 378 283c3.11-2.074 5.567-2.562 9.168-3.324 22.563-5.384 38.593-15.45 52.832-33.676z" class="C"/><path d="M437 520c4.223 2.713 8.372 5.502 12.375 8.531 8.824 6.672 17.843 12.31 27.625 17.469l1.824.984C491.322 553.716 504.18 557.835 518 561v3c-1.85 1.813-3.646 3.363-5.688 4.938l-1.883 1.452C492.6 583.735 470.956 594.764 449 599c-8.554-18.759-14.379-35.794-14.25-56.688l-.023-3.837c.013-6.506.303-12.26 2.273-18.475z" fill="#0d090a"/><path d="M357 332l5.913.524L387 335c-3.228 2.693-6.396 4.909-10.105 6.883l-2.954 1.583-3.129 1.659-6.507 3.488-3.243 1.737-12.624 6.962-4.391 2.438-7.469 4.187c-27.781 15.363-59.478 28.759-90.953 33.75l-2.324.393c-3.807.621-7.429 1.082-11.301.92 3.928-4.188 8.171-7.472 12.875-10.75l2.296-1.607c6.303-4.365 12.782-8.332 19.397-12.205l16.057-9.688 1.841-1.118 21.067-12.902 5.157-3.169c4.056-2.483 8.007-5.026 11.865-7.807 11.681-8.22 20.43-9.156 34.445-7.754z" class="C"/><path d="M326.312 385.562l3.534.018c9.316.134 9.316.134 13.154 2.42-37.866 24.282-37.866 24.282-54.312 24.062l-2.676-.027L284 412v2l1.555.41c6.638 1.866 13.01 4.278 19.405 6.837 3.786 1.511 7.558 2.952 11.442 4.19 9.263 3.011 14.615 6.725 20.598 14.563l4.5 4.75c8.828 9.843 14.886 21.372 20.5 33.25-9.25-2.216-18.39-4.764-27.529-7.389l-7.088-2.027-4.563-1.307-2.112-.603A251.12 251.12 0 0 1 309 463c4.602-3.068 9.153-3.231 14.5-2.563l2.5.563v-2l-1.727-.754c-2.619-1.436-4.475-3.133-6.648-5.184-5.635-5.159-11.567-9.832-17.608-14.5l-6.529-5.093C285.429 427.162 277.349 420.921 269 415c1.129-3.388 1.545-3.622 4.473-5.348l2.203-1.32 2.386-1.395 4.938-2.949 2.531-1.505c4.345-2.61 8.623-5.328 12.901-8.046l3.667-2.266a85.87 85.87 0 0 0 3.897-2.555c6.627-4.273 12.587-4.275 20.316-4.054zM398 80c2.272 2.272 2.476 3.273 3.148 6.348l.603 2.738.624 2.977.655 3.071c4.347 20.859 7.169 41.681 8.022 62.96l.33 6.074c1.065 16.891 1.065 16.891-2.498 21.672-2.581 1.814-4.959 3.007-7.884 4.161-1.229.781-2.442 1.588-3.625 2.438L395 194l-2-1 .883-1.844c3.549-7.589 6.525-15.33 9.392-23.195l1.53-4.036c1.465-3.787 2.658-7.412 3.383-11.425l.48-2.594L409 148c-5.442 2.842-9.554 6.105-13.938 10.375-4.214 4.01-8.37 7.861-13.132 11.223-3.281 2.384-6.342 5.049-9.438 7.668-2.744 1.909-5.29 2.824-8.492 3.734 2.425-10.66 5.676-21.069 8.878-31.515l2.765-9.049 4.501-14.655 2.456-8.036c2.77-9.027 5.814-17.753 9.712-26.37l1.338-3.039c3.179-7.165 3.179-7.165 4.35-8.336z" class="B"/><path d="M277 320c1.008 8.605-1.547 13.778-6 21l-2 4 4 1c-21.314 16.044-48.3 19.036-74.375 19.625l-4.289.117L184 366c1.842-4.927 3.25-7.788 7.562-11l2.727-2.039L197 351l2.211-1.711c7.614-5.69 16.107-9.89 24.566-14.162l5.567-2.889C242.902 325.441 261.642 319.347 277 320z" class="F"/><path d="M319 460v1l-3 .5-1.688.281c-5.986.566-11.548.163-17.457-.875-31.34-5.203-64.478-7.073-95.855-.906l-1 1a213.08 213.08 0 0 1-5.906.695c-12.032 1.454-23.797 4.473-35.594 7.18C92.952 483.897 92.952 483.897 61 464c-2.068-1.603-4.029-3.276-6-5l2-2c3.427.365 4.224 1.209 6.875 3.687 11.441 10.297 26.743 11.117 41.304 10.531 7.033-.543 13.746-2.546 20.533-4.37 6.126-1.58 12.305-2.936 18.477-4.326l11.42-2.6 2.213-.506 17.928-4.166 2.514-.596c4.718-1.131 9.382-2.39 14.048-3.717 43.676-11.505 84.64-5.774 126.688 9.063z" class="C"/><path d="M371 398l3.559.586 4.879.789 2.314.383L390 401l3.733.537c10.388 1.404 20.656 1.805 31.133 1.779l7.896.045c12.635.047 25.417-.496 37.238-5.361 2.812-.125 2.812-.125 5 0-2.299 2.602-4.428 3.791-7.633 5.086l-2.691 1.133-5.625 2.289-2.684 1.14-2.465 1.006c-2.131 1.231-2.131 1.231-2.761 3.82-.204 3.655 1.258 5.336 3.297 8.338 13.175 20.288 21.218 43.508 28.898 66.315.569 1.604 1.232 3.173 1.914 4.732C486 494 486 494 485 497c-5.739-7.522-11.267-15.165-16.685-22.921-2.603-3.71-5.253-7.322-8.127-10.829-3.286-4.14-5.595-8.616-8.024-13.297-4.158-7.789-9.046-15.192-13.741-22.664-1.027-1.651-2.015-3.327-2.979-5.016-1.242-2.387-1.242-2.387-3.444-3.273-2.262.071-4.523.201-6.781.359-27.418 1.5-27.418 1.5-38.75-8.216l-3.761-3.54c-2.431-2.281-5.049-4.021-7.833-5.853-1.31-.891-2.61-1.797-3.875-2.75v-1zm77 202c-4.097 4.625-8.53 7.202-14 10l-2.582 1.367c-16.42 8.497-34.174 16.09-52.226 20.282-10.747 2.501-21.013 5.888-31.339 9.752l-7.849 2.896c-9.389 3.459-18.62 7.157-27.746 11.263-2.669 1.18-5.329 2.257-8.07 3.253C292.299 663.475 280.77 670.189 270 677l-2-2c10.036-7.068 20.199-13.869 30.688-20.25l2.689-1.639L310 648l1.734-1.016c10.281-5.992 20.815-11.319 31.574-16.396l7.672-3.658c14.375-6.845 28.907-13.493 44.52-16.93l3.058-.704L409 607l2.126-.459 16.124-3.416 2.27-.477 6.433-1.328 3.755-.773c2.852-.474 5.413-.662 8.292-.547z" class="B"/><path d="M614 689l7 1c-1.979 5.765-4.379 10.645-7.688 15.75l-1.337 2.096L608 714l-2.152 3.352C599.11 727.678 591.41 736.998 583 746l-2.418 2.617c-16.143 16.851-35.978 28.887-56.832 39.008l-3.248 1.58-3.08 1.459-2.732 1.295c-2.894 1.12-9.121 4.633-12.19 5.041 3.386-4.324 10.227-10.536 14.688-13.812 5.087-3.802 9.87-7.799 14.546-12.106 2.075-1.906 4.189-3.75 6.328-5.582 14.77-13.004 25.873-28.096 34.938-45.5 1.441 4.322.531 7.766-1 12-2.375 2.625-2.375 2.625-5 5-1.488 2.273-2.727 4.595-4 7 7.788-4.185 11.754-9.328 16-17 1.945 2.918 2.453 4.625 3 8h2l.188-2.125c1.12-3.964 2.973-5.897 5.812-8.875h2c3.929-7.767 7.35-15.554 9.91-23.883C603 698 603 698 604.887 697.105c3.557-.177 5.938 1.368 9.113 2.895v-3h-4c1.75-5.75 1.75-5.75 4-8zM388 199l2 1-14 30h8l5.5 1 2.594.562L394 232c-2.961 3.549-5.947 7.012-9.25 10.25-2.815 2.636-2.815 2.636-4.75 5.75l-15.314-1.654-5.199-.562-7.514-.811-2.312-.25L334 243c2.077-8.633 6.76-19.643 14.449-24.574 3.267-1.733 6.679-3.085 10.122-4.423 4.834-1.996 9.455-4.451 14.117-6.815l2.862-1.422c3.581-1.78 7.076-3.532 10.47-5.653L388 199zm-48 588c-5.813 6.295-11.74 11.457-18.75 16.32-9.125 6.336-17.362 13.594-25.492 21.137a251.36 251.36 0 0 1-6.57 5.856C271.816 845.095 271.816 845.095 258 863c-2.794 3.009-5.642 5.637-9 8 1.333-4.208 2.907-8.177 4.758-12.184l1.633-3.538 1.734-3.715.889-1.905c4.384-9.382 8.762-18.707 13.986-27.658l.917-1.8c6.502-12.721 16.504-16.225 29.485-20.871 3.94-1.455 7.815-3.032 11.692-4.645l4.106-1.697 6.046-2.507 5.645-2.304 3.282-1.347c2.857-.838 4.1-.901 6.827.171z" class="C"/><path d="M389 101c1 2 1 2 .875 5.562-.046 3.196.387 5.595 1.5 8.586 1.709 4.904 2.776 9.821 3.75 14.914l.512 2.565c2.788 14.239 2.788 14.239 1.425 17.873L396 152l3 1c-1.383 3.189-2.917 5.073-5.562 7.312l-2.168 1.836c-2.931 2.391-5.901 4.721-8.907 7.016-1.671 1.299-3.318 2.63-4.945 3.984l-2.606 2.164-2.355 1.989c-2.728 1.886-5.28 2.793-8.457 3.699 2.425-10.66 5.676-21.069 8.878-31.515l2.765-9.049 4.486-14.613 1.738-5.65 2.457-7.95.733-2.396c1.032-3.303 2.01-5.928 3.943-8.827z" class="B"/><path d="M278.562 311.937l3.635.014L291 312c-.574 3.433-1.427 6.201-3.031 9.285l-1.207 2.358-1.262 2.419-2.469 4.786-1.107 2.125c-.911 1.999-1.405 3.899-1.924 6.027-1.706 2.354-3.654 4.283-6 6-2.875.375-2.875.375-5 0 1.072-3.802 2.51-6.91 4.562-10.25 2.79-4.816 3.312-9.251 3.438-14.75-27.588 4.26-54.353 13.365-77 30l-5.125 3.437-2.258 1.497L191 356c.524-4.154 2.735-6.15 5.602-9.07l1.42-1.45 4.603-4.605 1.578-1.574c9.872-9.804 20.652-20.485 34.797-23.301l1.884-.377c5.021-.984 10.053-1.877 15.116-2.623l2.058-.305c6.826-.889 13.632-.807 20.504-.758z" class="D"/><path d="M341.338 387.037L343 388c-23.139 14.838-43.608 25.862-72 25 5.529-6.237 13.379-10.068 20.414-14.366 2.447-1.546 4.796-3.179 7.148-4.864 11.685-8.031 28.991-12.844 42.776-6.733z" class="C"/><path d="M267 327h10c-.523 4.903-2.001 8.184-4.563 12.375l-1.941 3.211L269 345l4 1c-9.97 7.505-20.488 13.178-33 15-2.184-.379-2.184-.379-4-1l-2.625-.812c-2.375-1.188-2.375-1.188-3.75-3-.83-2.906-.668-4.339.375-7.188 3.255-3.999 6.021-5.726 11-7l3.812 3.75 2.145 2.109c1.866 1.955 3.475 3.944 5.043 6.141 5.422-6.064 8.733-12.379 11.738-19.863C265 331 265 331 267 327z" fill="#f9527d"/><path d="M231 346l2 1-1.562 1c-1.77 2.462-1.51 3.255-1.126 6.188L231 358l6 1c-2 3-2 3-5.48 3.914l-4.708.711-2.577.378C210.93 365.755 197.401 365.766 184 366c1.89-5.09 3.518-8.056 7.875-11.5l2.555-2.094C197 351 197 351 199.641 351.18c2.359.82 2.359.82 5.234 2.445 4.011 1.765 5.858 1.316 10.125.375 2.867-1.204 5.582-2.642 8.312-4.125 2.542-1.371 5.07-2.647 7.688-3.875z" class="F"/><path d="M481 339c-1 3-1 3-2.86 4.072l-2.46.979-2.779 1.109-3.026 1.152-3.104 1.198c-9.838 3.692-19.866 6.588-30.115 8.892a146.74 146.74 0 0 0-5.431 1.336c-7.175 1.707-11.435.754-17.913-2.613l-2.451-1.184L405 351v-1l2.221-.028c16.324-.26 31.842-1.402 47.779-4.972l2.491-.545c8.984-1.957 8.984-1.957 17.79-4.572C478 339 478 339 481 339z" class="C"/><path d="M125 326h3c3.377 9.535.804 17.889-3 27-4.303 8.093-10.09 15.041-16 22l-3.062 3.688L104 381c0-3.919 1.662-6.552 3.438-9.938 7.46-14.649 14.325-28.856 17.562-45.062z" fill="#f9527d"/><path d="M198 484h1c.097 7.177-.14 14.281-.688 21.438l-.162 2.966c-.556 7.035-.556 7.035-3.255 9.584L192 519l-3.664 1.422-3.961 1.328-2.023.707c-4.986 1.665-4.986 1.665-8.352.543l1.941-2.055C186.442 509.647 193.171 498.771 198 484z" class="C"/><path d="M261.562 329.938L264 330c1.528 4.583-.527 7.538-2.398 11.836-2.266 4.476-4.923 8.712-8.602 12.164h-3c-1.375-1.971-2.702-3.977-4-6l-2.75-2.75L241 343v-2c1.545-1.129 1.545-1.129 3.684-2.348l2.31-1.334 2.444-1.38 4.746-2.723 2.142-1.215c3.377-2.017 3.377-2.017 5.236-2.062z" class="F"/><path d="M147 628c-16.576 13.568-16.576 13.568-28 15l-2.805.51c-5.139.788-10.256.674-15.445.678l-3.336.037-3.18.006-2.899.012C89 644 89 644 87 642l2.237-.348c16.941-2.688 33.083-6.086 49.007-12.565C143.7 626.9 143.7 626.9 147 628z" class="C"/><path d="M407 147h3l.977 14.996.35 5.095c1.11 14.12 1.11 14.12-2.439 18.538-2.566 1.798-5.028 3.107-7.888 4.371-1.225.786-2.438 1.595-3.625 2.438L395 194l-2-1 .883-1.844c3.549-7.589 6.525-15.33 9.392-23.195l1.53-4.036c1.465-3.787 2.658-7.412 3.383-11.425l.48-2.594L409 148l-2-1z" class="B"/><path d="M240.894 342.723c2.396 1.453 3.911 3.027 5.731 5.152l1.789 2.055c1.499 1.957 2.572 3.831 3.586 6.07h-2v2l-4.75 1.563-2.672.879c-2.706.586-4.004.456-6.578-.442l-2.625-.812c-2.375-1.188-2.375-1.188-3.75-3-.83-2.906-.668-4.339.375-7.188 6.759-7.855 6.759-7.855 10.894-6.277z" class="D"/><path d="M277 320v7l-2.117.078-2.758.172-2.742.141c-2.554.365-2.554.365-3.703 2.656L265 332l-1-2-2.622.988c-3.366 1.008-5.937 1.243-9.433 1.207l-3.359-.019-3.461-.051-3.531-.027L233 332c2.988-2.492 5.594-3.689 9.324-4.754l3.119-.9 3.245-.909 3.185-.92c17.024-4.862 17.024-4.862 25.127-4.517z" class="F"/><path d="M207 264l3 1a68.85 68.85 0 0 1-9.25 13.312l-2.93 3.403-1.448 1.679c-4.323 5.06-8.474 10.247-12.247 15.731L182 302h-2c4.805-16.284 14.203-27.169 27-38z" class="B"/><path d="M231 346l2 1-1.562 1c-1.77 2.462-1.51 3.255-1.126 6.188L231 358l6 1c-2 3-2 3-5.449 3.977l-4.239.648-2.195.298c-3.441.322-5.673.321-8.73-1.361-1.72-1.766-3.113-3.456-4.387-5.562 3.204-3.464 6.881-5.18 11.062-7.25l2.221-1.141c1.874-.936 3.793-1.78 5.717-2.609z" class="F"/><path d="M456 210c-1.352 4.084-3.069 6.377-6.188 9.313-3.663 3.527-7.043 7.158-10.304 11.058C438 232 438 232 435 234c.888-14.39.888-14.39 4-20 2.541-1.741 5.003-2.408 8-3l2.082-.555c2.342-.543 4.523-.511 6.918-.445zm-35 56l2 1c-7.709 8.006-15.962 12.504-26 17l-2.734 1.238c-5.312 1.786-11.221-.346-16.266-2.238 3.11-2.074 5.567-2.562 9.168-3.324 10.224-2.44 19.5-6.206 28.729-11.173 1.673-.888 3.386-1.703 5.103-2.503z" class="C"/><path d="M300 654l2 1c.625 2.062.625 2.062 1 4l-1.953 1.006-8.922 4.619-3.07 1.582c-6.499 3.374-12.826 6.944-19.055 10.793l-2-2 26.562-17.875 3.067-1.93L300 654zm262-121c4.419 2.485 5.498 6.133 7.016 10.703l.79 2.291 1.623 4.801 2.501 7.295 1.586 4.676.757 2.182c1.493 4.535 1.975 8.778 1.727 13.552-2.5 1.5-7.122-14.057-8.984-21.5-2.5-9.957-1.453-10.519-7.016-19a99.22 99.22 0 0 1 0-5z" class="B"/><path d="M125 326h3c2.709 7.65 1.84 13.426-1 21h-2v-7l-3-1 3-13z" class="D"/><path d="M116 354h1c1.679 3.08 2.328 5.487 2 9-3.128 4.846-6.946 8.917-11 13l-1.488 1.502L103 381c1.682-4.472 3.783-8.681 5.938-12.938l1.052-2.091 2.045-4.056L116 354z" class="C"/><path d="M238 348l1 1-.437 4.562-.309 2.504L238 358c-2.312.687-2.312.687-5 1-2.665-1.618-2.999-2.996-3.875-6-.125-3-.125-3 .938-4.938 2.873-1.575 4.851-.867 7.937-.062z" class="E"/><path d="M317 749.999c-13.501 12.5 14.525 2.642 21 1.001l33-11.5c-2.236-.05-22.236 2.45-31.097 3.825l-2.395.288-5.383.699c-6.121.716-10.597 1.093-15.125 5.687zM152 262h1c-.571 9.756-1.605 19.331-3 29-2.613-2.613-2.312-4.555-2.379-8.122l.004-2.44-.004-2.465c.109-6.194 1.184-10.582 4.379-15.973z" class="B"/><path d="M408 200c1.6 3.201.032 5.723-1 9l3 1c-5.696 4.747-5.696 4.747-9 6l-2-1c.511-4.503 2.175-6.875 5.062-10.312l2.223-2.676L408 200z" class="E"/><path d="M205 341l1 4-4.688 3.812-2.636 2.145c-2.476 1.89-4.974 3.5-7.676 5.043.431-4.41 3.422-6.83 6.438-9.75l1.525-1.535C202.733 341 202.733 341 205 341z" class="D"/><path d="M277 320v7h-9v-6c2.957-1.478 5.742-1.06 9-1z" class="F"/><path d="M408 622c-23.582 8.932-23.582 8.932-35 11l1-3c2.636-1.059 2.636-1.059 6.117-2.008l3.778-1.051 3.98-1.066 3.957-1.09 7.273-1.985c6.175-1.707 6.175-1.707 8.895-.8z" class="B"/><path d="M275 333l3 1c-.503 4.322-1.195 7.594-4 11-2.688.312-2.688.312-5 0 1.319-4.615 3.214-8.099 6-12z" class="D"/><path d="M286 666v2l-16 9-2-2 6.75-5.062 1.922-1.471 1.875-1.377 1.714-1.286c2.268-1.049 3.434-.619 5.739.196zm87-49l2 1c-4.773 3.173-9.546 5.851-14.828 8.082a98.49 98.49 0 0 0-4.156 1.867c-3.512 1.658-5.33 2.226-9.016 1.051l10.999-5.182 3.742-1.766 5.376-2.525 3.269-1.539L373 617z" class="B"/><path d="M239 317v3l4 2c-2 2-2 2-5 2.25-3-.25-3-.25-5-2.25l-4-2c3.73-2.034 5.669-3 10-3zm-12 4l2 1-1.875.688c-2.748 1.697-3.057 3.337-4.125 6.312-2.709 1.354-5.009 1.065-8 1a37.47 37.47 0 0 1 12-9z" class="D"/><path d="M448 600c-4.625 4.875-4.625 4.875-8 6v-3h-8v-1l5.188-1 2.917-.562c2.688-.407 5.183-.517 7.895-.438z" class="B"/><path d="M419 175h2l-1.375 4.375-.773 2.461C418 184 418 184 416 186l-2-5 5-6z" class="E"/><path d="M268 344l5 1c-3.277 3.67-6.715 5.693-11 8 1.527-3.436 3.599-6.119 6-9z" class="D"/><path d="M183 293l3 3-4 6h-2l3-9zm198.688 335.937l2.449.028L386 629v1l-13 3 1-3c2.882-.961 4.699-1.106 7.688-1.063zM282 665l4 1v2c-1.812 1.062-1.812 1.062-4 2l-3-1 3-4z" class="B"/><path d="M398 212l1 3 2 1c-1.812 1.062-1.812 1.062-4 2l-3-1 4-5z" class="E"/><path d="M207 719l1 2-3 6h-3c1.372-2.954 2.989-5.44 5-8z" class="C"/><path d="M398 80h1c.262 3.146.248 4.618-1.5 7.313L396 89l-2-1 4-8z" fill="#7d031d"/><path d="M264 679c-1 3-1 3-3.438 4.75L258 685l-2-1c5.75-5 5.75-5 8-5z" class="B"/><path d="M408 212l-2 6-4-2c3.75-4 3.75-4 6-4z" class="E"/><path d="M0 462l2 1-2-1z" fill="#7d031d"/></svg>