<svg width="3721" height="3721" viewBox="0 0 3721 3721" fill="none" xmlns="http://www.w3.org/2000/svg">
<circle cx="1860.5" cy="1860.5" r="1860.5" fill="#292929"/>
<mask id="mask0_1473_1833" style="mask-type:alpha" maskUnits="userSpaceOnUse" x="0" y="0" width="3721" height="3721">
<circle cx="1860.5" cy="1860.5" r="1860.5" transform="matrix(-1 0 0 1 3721 0)" fill="#D9D9D9"/>
<circle cx="1860.5" cy="1860.5" r="1860.5" transform="matrix(-1 0 0 1 3721 0)" stroke="black"/>
</mask>
<g mask="url(#mask0_1473_1833)">
<path d="M733.383 3213.4L370.487 4164.09C368.182 4170.13 367 4176.54 367 4183V4226.26C367 4255.55 390.744 4279.29 420.033 4279.29H765.118C796.667 4279.29 818.718 4248.07 808.171 4218.34C803.961 4206.47 804.836 4193.39 810.591 4182.19L1096.44 3625.8C1121.87 3576.3 1196.64 3594.39 1196.64 3650.04V4364.14L1276.42 4357.62C1346.74 4358.9 1439.45 4363.88 1456.26 4342.93C1523.24 4064.91 1938.09 2993.07 2138.27 4355.37C2142.03 4380.94 2163.7 4401.87 2189.53 4402.69L2429.01 4410.32C2456.58 4411.2 2480.26 4390.95 2483.7 4363.58C2508.33 4167.64 2571.39 3683.67 2489.08 3579.25C2376.2 3436.06 2934.94 3441.36 2923.65 4061.85V4226.26C2923.65 4255.55 2947.4 4279.29 2976.69 4279.29H3059.73C3082.87 4279.29 3103.33 4264.59 3109.54 4242.3C3183.04 3978.47 3273.02 3365.68 3283.84 3091.34C3285.67 3044.91 3346.31 3005.58 3387.21 3027.66L3532.95 3106.33C3540.52 3110.42 3546.98 3116.34 3551.88 3123.41C3711.4 3353.8 3936.01 3460.02 4073.81 3523.09C4078.38 3525.19 4083.28 3526.62 4088.27 3527.27C4410.2 3569.6 4551.07 3293.87 4566 3197.4C4584.88 3075.43 4554.37 2921.84 4080.63 2507.97C3916.74 2364.79 3511.01 2274.2 3334.34 2296.65C3295.24 2301.62 3235.81 2286.2 3216.94 2251.61C3021.09 1892.68 2819.74 1759.67 2597.15 1678.79C2573.71 1670.27 2558.77 1646.91 2561.25 1622.09C2615.48 1079.59 2549.59 842.985 2489.08 853.324C2443.01 861.194 2234.78 1015.66 2114.77 1108.55C2098.57 1121.08 2076.65 1123.12 2058.07 1114.51C1666.18 932.796 1293.99 1031.19 1131.19 1115.42C1115.37 1123.61 1096.43 1124.21 1080.38 1116.49C627.613 898.573 467.534 930.347 435.143 984.913C429.161 994.991 432.32 1007.58 437.995 1017.83C738.432 1560.67 721.751 1843.63 671.581 1927.07C668.228 1932.64 665.148 1938.59 663.383 1944.85C451.323 2697.02 685.568 3042.67 734.414 3181.22C738.116 3191.72 737.353 3203 733.383 3213.4Z" fill="white"/>
<path d="M1941.63 2110.22C1834.39 2110.22 1738.45 1961.72 1941.63 1935.21C2054.5 1935.21 2139.16 2051.88 1941.63 2110.22Z" fill="#EB8499"/>
<path d="M2287.24 1787.01C2215.06 1765.11 2138.42 1785.21 2094.89 1804.45C2087.13 1807.88 2086.63 1822.57 2094.89 1824.5C2143.91 1835.93 2228.8 1822.15 2285.34 1809.05C2294.95 1806.82 2296.68 1789.88 2287.24 1787.01Z" fill="#EB8499"/>
<path d="M1320.79 1717.6C1405.29 1685.04 1518.88 1720.12 1582.84 1750.08C1590.98 1753.89 1588.53 1774.16 1579.68 1775.68C1513.91 1786.91 1393.97 1763.29 1320.79 1744.5C1311.72 1742.17 1312.05 1720.97 1320.79 1717.6Z" fill="#EB8499"/>
<path d="M629.663 1135.07C604.509 1205.98 740.335 1453.97 843.407 1621.49C849.663 1631.65 866.139 1623.54 862.537 1612.15C848.946 1569.21 839.247 1529.54 846.508 1522.72C858.595 1511.36 964.354 1535.15 1023.14 1550.33C1028.01 1551.58 1033.02 1549.03 1034.88 1544.36L1046.1 1516.26C1046.99 1514.02 1047.04 1511.53 1046.23 1509.25L1036.32 1481.31C1034.03 1474.84 1038.83 1468.05 1045.69 1468.05H1079.86C1085.35 1468.05 1089.8 1463.6 1089.8 1458.11V1408.42C1089.8 1402.93 1094.25 1398.48 1099.74 1398.48H1148.78C1158.45 1398.48 1162.5 1386.21 1154.6 1380.65C976.716 1255.58 657.895 1055.48 629.663 1135.07Z" fill="#EB8499"/>
<path d="M1196.64 4364.14V3650.04C1196.64 3594.39 1121.87 3576.3 1096.44 3625.8L810.591 4182.19C804.836 4193.39 803.961 4206.47 808.171 4218.34C818.718 4248.07 796.667 4279.29 765.118 4279.29H420.033C390.744 4279.29 367 4255.55 367 4226.26V4183C367 4176.54 368.182 4170.13 370.487 4164.09L733.383 3213.4C737.353 3203 738.116 3191.72 734.414 3181.22C685.568 3042.67 451.323 2697.02 663.383 1944.85C665.148 1938.59 668.228 1932.64 671.581 1927.07C721.751 1843.63 738.432 1560.67 437.995 1017.83C432.32 1007.58 429.161 994.991 435.143 984.913C467.534 930.347 627.613 898.573 1080.38 1116.49C1096.43 1124.21 1115.37 1123.61 1131.19 1115.42C1293.99 1031.19 1666.18 932.796 2058.07 1114.51C2076.65 1123.12 2098.57 1121.08 2114.77 1108.55C2234.78 1015.66 2443.01 861.194 2489.08 853.324C2549.59 842.985 2615.48 1079.59 2561.25 1622.09C2558.77 1646.91 2573.71 1670.27 2597.15 1678.79C2819.74 1759.67 3021.09 1892.68 3216.94 2251.61C3235.81 2286.2 3295.24 2301.62 3334.34 2296.65C3511.01 2274.2 3916.74 2364.79 4080.63 2507.97C4554.37 2921.84 4584.88 3075.43 4566 3197.4C4551.07 3293.87 4410.2 3569.6 4088.27 3527.27C4083.28 3526.62 4078.38 3525.19 4073.81 3523.09C3936.01 3460.02 3711.4 3353.8 3551.88 3123.41C3546.98 3116.34 3540.52 3110.42 3532.95 3106.33L3387.21 3027.66C3346.31 3005.58 3285.67 3044.91 3283.84 3091.34C3273.02 3365.68 3183.04 3978.47 3109.54 4242.3C3103.33 4264.59 3082.87 4279.29 3059.73 4279.29H2976.69C2947.4 4279.29 2923.65 4255.55 2923.65 4226.26V4061.85C2934.94 3441.36 2376.2 3436.06 2489.08 3579.25C2571.39 3683.67 2508.33 4167.64 2483.7 4363.58C2480.26 4390.95 2456.58 4411.2 2429.01 4410.32L2189.53 4402.69C2163.7 4401.87 2142.03 4380.94 2138.27 4355.37C1938.09 2993.07 1523.24 4064.91 1456.26 4342.93M1196.64 4364.14C1204.73 4357.35 1237.07 4356.91 1276.42 4357.62M1196.64 4364.14L1276.42 4357.62M1276.42 4357.62C1346.74 4358.9 1439.45 4363.88 1456.26 4342.93M1276.42 4357.62L1456.26 4342.93M2054.5 2338.26C2030.23 2313.55 1979.21 2283.53 1907.76 2278.19M1907.76 2278.19C1846.29 2273.59 1769.7 2287.25 1682.01 2338.26M1907.76 2278.19C1921.31 2278.81 1935.98 2166.47 1941.63 2110.22M1941.63 2110.22C1834.39 2110.22 1738.45 1961.72 1941.63 1935.21C2054.5 1935.21 2139.16 2051.88 1941.63 2110.22ZM2094.89 1804.45C2138.42 1785.21 2215.06 1765.11 2287.24 1787.01C2296.68 1789.88 2294.95 1806.82 2285.34 1809.05C2228.8 1822.15 2143.91 1835.93 2094.89 1824.5C2086.63 1822.57 2087.13 1807.88 2094.89 1804.45ZM1582.84 1750.08C1518.88 1720.12 1405.29 1685.04 1320.79 1717.6C1312.05 1720.97 1311.72 1742.17 1320.79 1744.5C1393.97 1763.29 1513.91 1786.91 1579.68 1775.68C1588.53 1774.16 1590.98 1753.89 1582.84 1750.08ZM843.407 1621.49C740.335 1453.97 604.509 1205.98 629.663 1135.07C657.895 1055.48 976.716 1255.58 1154.6 1380.65C1162.5 1386.21 1158.45 1398.48 1148.78 1398.48H1099.74C1094.25 1398.48 1089.8 1402.93 1089.8 1408.42V1458.11C1089.8 1463.6 1085.35 1468.05 1079.86 1468.05H1045.69C1038.83 1468.05 1034.03 1474.84 1036.32 1481.31L1046.23 1509.25C1047.04 1511.53 1046.99 1514.02 1046.1 1516.26L1034.88 1544.36C1033.02 1549.03 1028.01 1551.58 1023.14 1550.33C964.354 1535.15 858.595 1511.36 846.508 1522.72C839.247 1529.54 848.946 1569.21 862.537 1612.15C866.139 1623.54 849.663 1631.65 843.407 1621.49Z" stroke="#EB8499" stroke-width="39.2159"/>
</g>
</svg>
