<svg width="667" height="940" viewBox="0 0 667 940" fill="none" xmlns="http://www.w3.org/2000/svg">
<path d="M136.523 18.0044L134.229 18.1734C128.396 18.3112 124.496 18.6915 119.667 22.1952L117.527 24.0014C110.025 30.1389 106.834 39.4494 104.415 48.5308C103.963 50.3312 103.511 52.1315 103.049 53.9293C102.033 57.8801 101.052 61.8384 100.1 65.8052L99.6241 67.802C85.8013 125.722 77.169 190.829 96.9206 248.231C99.1327 254.446 101.164 260.176 101.547 266.797C100.37 271.348 98.7859 273.665 95.0582 276.35C93.6806 277.309 92.319 278.292 90.9729 279.294C84.8342 285.008 82.013 290.603 80.94 298.881C81.9535 307.279 85.0542 313.723 90.9729 319.67L92.9067 321.551L94.8179 323.515C96.7125 325.16 96.7125 325.16 97.7016 327.361C96.9251 332.1 94.962 335.934 92.6328 340.101L91.3935 342.261C90.0835 344.573 88.7693 346.882 87.4425 349.185L86.1668 351.394C77.9246 365.842 69.5384 379.219 56.2084 389.462C54.9831 390.398 53.7621 391.34 52.5447 392.287C47.0866 396.534 41.6054 400.754 36.0159 404.828C27.9717 410.651 19.8545 416.214 14.0741 424.455C10.4237 430.926 9.07957 437.337 10.6422 444.654C16.6669 465.66 38.6887 483.547 56.5187 494.444C82.309 509.543 107.912 513.4 136.73 506.041L139.711 505.27C141.843 504.721 143.976 504.171 146.109 503.62C149.432 502.757 152.755 501.896 156.082 501.045C158.27 500.485 160.458 499.922 162.645 499.355L165.784 498.541C171.569 497.068 177.096 495.76 182.29 492.709L131.345 745.539C127.242 749.967 123.207 754.451 119.202 758.967L116.866 761.701L114.73 764.183C112.393 767.734 111.894 770.862 112.491 775.07L113.194 777.743L113.988 780.776L114.884 783.992C117.941 795.114 121.73 805.748 126.441 816.274L127.5 818.6C134.658 834.353 143.73 849.112 154.057 862.982L155.376 864.744C161.602 873.092 167.927 881.323 174.713 889.225C176.723 891.561 178.709 893.908 180.653 896.298C182.053 898.038 183.46 899.77 184.877 901.496L187.096 904.158C192.18 910.28 197.16 916.604 204.639 919.828C212.9 921.929 220.697 921.304 228.093 917.146L230.848 915.465L233.973 913.576C246.531 905.96 259.27 898.844 272.405 892.261L275.53 890.699C301.547 877.598 328.19 866.113 355.927 857.127L359.158 856.092C374.224 851.22 389.42 847.027 404.796 843.247L406.81 842.753C413.638 841.077 420.468 839.407 427.307 837.774C461.589 829.595 496.484 820.6 527.967 804.412L530.257 803.218C554.124 790.84 577.636 775.377 595.441 754.972C596.457 753.746 597.479 752.524 598.505 751.307C610.107 739.069 620.376 725.747 628.288 710.815C629.257 708.95 630.225 707.087 631.223 705.238C650.958 668.736 654.423 627.824 644.954 587.746C644.468 585.715 643.986 583.685 643.526 581.648C641.543 572.867 638.921 564.923 634.912 556.856C633.686 554.426 632.484 551.987 631.309 549.532C629.832 546.442 628.345 543.357 626.852 540.274C626.245 539.021 625.639 537.767 625.032 536.513C623.616 533.583 622.199 530.654 620.781 527.725L619.652 525.394L621.947 524.538C626.36 522.665 628.375 519.124 630.226 514.82C631.163 508.309 630.917 503.099 627.057 497.692L625.66 496.014C623.939 493.891 622.532 492.707 620.122 491.38C616.391 489.65 612.681 487.884 608.979 486.095L606.135 484.718C601.246 482.42 596.285 480.515 592.82 476.228C590.815 473.483 590.815 473.483 588.724 471.718L588.724 471.718C581.861 466.774 576.128 461.241 570.87 454.617C567.626 450.458 564.236 446.459 560.777 442.48C557.328 438.551 554.214 434.638 551.405 430.223H553.327C558.232 428.285 562.844 425.995 565.823 421.571C566.794 416.233 567.626 410.459 565.823 405.228C562.375 397.761 549.482 390.328 548.941 389.427C548.401 388.525 543.895 384.259 543.895 384.259C526.044 366.839 514.179 345.721 503.343 323.515C504.863 322.82 506.381 322.121 507.892 321.405L509.771 320.511C515.78 317.788 519.685 314.895 522.706 308.799C524.867 301.912 525.269 297.037 522.447 290.229C519.939 285.12 517.388 281.639 511.919 279.46C500.047 275.135 491.048 268.195 482.064 259.441L479.432 256.823C475.988 253.403 471.725 250.097 469.811 245.554C469.478 243.391 469.478 243.391 471.814 240.988C476.118 236.233 479.277 230.611 481.234 224.499C482.467 216.229 482.063 208.488 477.39 201.427C467.457 191.27 466.367 183.359 466.336 169.381C466.335 166.37 466.294 163.363 466.238 160.352L466.125 154.412C465.926 140.621 464.787 126.93 462.64 113.301L462.13 110.281C459.823 96.5499 456.958 82.928 454.076 69.3082L453.299 65.639C452.552 62.0813 451.804 58.5243 451.042 54.97L450.321 51.6246C449.095 45.7736 447.791 40.1245 445.614 34.5451C443.036 28.264 438.962 23.8651 432.692 21.1775L430.289 20.6969V18.7742C428.105 18.7145 425.921 18.6672 423.737 18.6334L421.037 18.594C416.353 18.4637 412.343 18.2796 407.929 19.9871L405.297 21.6582C398.631 25.7662 392.715 30.1546 387.214 35.7176C385.033 38.0265 382.873 40.3137 380.493 42.4178C375.552 46.6668 370.932 51.1362 366.367 55.7854C363.067 59.1457 359.8 62.5321 356.278 65.6615C351.228 70.002 346.524 74.5896 341.855 79.3379C338.397 82.8558 334.979 86.4134 331.289 89.691C325.89 94.3209 320.893 99.2657 315.902 104.332C312.131 108.161 308.419 112.063 304.391 115.625C300.927 118.569 297.63 121.598 294.44 124.842L292.938 126.379C290.897 128.46 288.858 130.543 286.825 132.632C285.275 134.237 283.725 135.841 282.162 137.433L280.682 138.937C279.014 140.687 277.405 142.197 275.53 143.747C271.838 144.171 271.838 144.171 270.212 142.445C265.804 136.831 260.863 131.81 255.831 126.763C254.802 125.732 253.774 124.7 252.747 123.666C249.343 120.241 245.936 116.819 242.527 113.4L242.016 112.888C240.99 111.859 239.965 110.83 238.939 109.801C233.341 104.184 227.742 98.5681 222.139 92.9563C215.651 86.4587 209.167 79.9574 202.694 73.4451C197.638 68.3582 192.577 63.2764 187.509 58.2016L186.511 57.2024C183.821 54.5114 181.132 51.8205 178.451 49.1211C175.589 46.2355 172.725 43.3525 169.849 40.4811C168.778 39.4136 167.707 38.3452 166.638 37.276C164.727 35.3404 162.815 33.4075 160.878 31.4984C154.051 24.9909 146.455 17.7965 136.523 18.0044Z" fill="#101010"/>
<path d="M133 38C138.714 42.058 143.752 46.4669 148.682 51.439C149.764 52.5183 149.764 52.5183 150.868 53.6194C153.231 55.9784 155.586 58.3445 157.941 60.7109C159.594 62.3651 161.248 64.0189 162.901 65.6723C166.358 69.1306 169.812 72.5923 173.262 76.0566C177.671 80.4821 182.086 84.9009 186.503 89.3175C189.915 92.7299 193.325 96.145 196.734 99.561C198.36 101.191 199.987 102.819 201.615 104.448C203.895 106.73 206.172 109.016 208.448 111.302C209.443 112.297 209.443 112.297 210.458 113.312C214.287 117.167 217.938 121.131 221.485 125.247C223.563 127.651 225.719 129.979 227.875 132.312C232.797 137.711 237.419 143.312 242 149C243.582 150.939 245.165 152.876 246.75 154.812C247.486 155.715 248.222 156.617 248.98 157.547C250.65 159.575 252.348 161.572 254.062 163.562C256 166 256 166 256 168C260.467 167.981 264.931 167.929 269.397 167.847C270.915 167.824 272.433 167.81 273.951 167.804C276.139 167.795 278.324 167.754 280.512 167.707C281.826 167.691 283.141 167.676 284.495 167.659C288.867 166.837 290.167 165.353 293 162C294.393 160.618 295.786 159.236 297.18 157.855C298.745 156.3 300.31 154.744 301.875 153.188C302.652 152.419 303.43 151.65 304.23 150.857C308.396 146.709 312.371 142.481 316.204 138.025C319.62 134.173 323.289 130.568 326.938 126.938C328.077 125.792 328.077 125.792 329.24 124.623C332.726 121.143 336.235 117.745 339.973 114.535C344.731 110.438 349.098 105.973 353.5 101.5C358.61 96.308 363.743 91.252 369.271 86.5059C371.455 84.6034 373.484 82.5781 375.5 80.5C378.882 77.0712 382.381 73.8795 386.035 70.7461C388.108 68.9038 390.054 66.976 392 65C395.161 61.7956 398.435 58.8003 401.848 55.8672C405.218 52.943 408.504 49.925 411.801 46.918C416.293 43 416.293 43 420 43C420.66 41.68 421.32 40.36 422 39C423.32 39 424.64 39 426 39C433.634 69.6621 439.345 100.485 442 132C442.071 132.816 442.141 133.631 442.214 134.472C444.333 160.188 444.49 187.554 440 213C440.736 212.783 441.472 212.567 442.23 212.344C443.694 211.926 443.694 211.926 445.188 211.5C446.15 211.222 447.113 210.943 448.105 210.656C450.853 210.033 453.196 209.877 456 210C454.648 214.084 452.931 216.377 449.812 219.312C445.628 223.356 441.73 227.535 438 232C437.372 232.721 436.744 233.441 436.098 234.184C433.366 237.851 431.339 241.754 429.25 245.812C428.839 246.601 428.428 247.389 428.004 248.201C426.998 250.132 425.998 252.065 425 254C426.98 254.66 428.96 255.32 431 256C432.128 254.899 433.252 253.794 434.375 252.688C435.001 252.073 435.628 251.458 436.273 250.824C438.181 248.912 438.181 248.912 440 246C443.024 247.334 444.911 248.727 447.059 251.23C447.885 252.189 447.885 252.189 448.729 253.166C449.574 254.167 449.574 254.167 450.438 255.188C450.998 255.835 451.558 256.483 452.135 257.15C454.788 260.25 457.295 263.364 459.602 266.73C461.711 269.743 463.994 271.885 466.938 274.125C471.713 277.896 476.23 281.859 480.688 286C481.312 286.576 481.936 287.153 482.58 287.747C484.075 289.142 485.54 290.568 487 292C487 292.33 487 292.66 487 293C484.292 293.338 481.584 293.67 478.875 294C477.734 294.143 477.734 294.143 476.57 294.289C475.823 294.379 475.075 294.47 474.305 294.562C473.284 294.688 473.284 294.688 472.242 294.816C469.489 295.042 466.761 295.028 464 295C467.726 302.197 471.455 309.392 475.19 316.584C477.105 320.274 479.015 323.966 480.922 327.66C486.288 338.023 491.88 348.234 497.674 358.364C505 371.18 505 371.18 505 375C505.574 375.064 506.147 375.129 506.738 375.195C509.933 376.332 511.117 378.212 513.188 380.875C513.971 381.869 514.755 382.863 515.562 383.887C516.367 384.914 517.171 385.941 518 387C519.558 388.899 521.121 390.795 522.688 392.688C526.25 397.037 529.683 401.461 533 406C532.67 406.66 532.34 407.32 532 408C523.09 405.69 514.18 403.38 505 401C516.994 426.345 534.533 447.813 553.504 468.285C555.609 470.574 557.661 472.892 559.688 475.25C562.006 477.939 564.439 480.417 567 482.875C574.584 490.391 579.719 499.709 584.938 508.938C586.25 511.238 587.563 513.538 588.879 515.836C589.215 516.423 589.55 517.01 589.896 517.615C593.307 523.565 596.824 529.45 600.344 535.335C614.04 558.277 625.206 580.721 631 607C631.369 608.657 631.369 608.657 631.746 610.348C637.171 640.539 631.68 674.53 616 701C615.55 701.764 615.1 702.528 614.636 703.314C605.162 719.289 594.812 733.556 582 747C581.234 747.83 580.469 748.66 579.68 749.516C557.941 772.359 528.736 786.193 500 798C498.467 798.651 496.934 799.303 495.402 799.957C486.323 803.764 477.165 807.011 467.719 809.789C466.554 810.133 465.389 810.476 464.189 810.83C451.741 814.447 439.169 817.529 426.574 820.586C404.065 826.056 381.688 831.862 359.438 838.312C358.335 838.631 357.232 838.949 356.095 839.277C352.998 840.174 349.903 841.079 346.809 841.988C345.461 842.381 345.461 842.381 344.087 842.782C339.217 844.232 334.643 845.938 330 848C328.55 848.514 327.092 849.009 325.625 849.473C321.019 850.973 316.51 852.672 312 854.438C311.258 854.724 310.515 855.011 309.75 855.307C305.2 857.08 300.722 858.975 296.269 860.98C293.99 862.004 291.703 863.008 289.414 864.008C277.663 869.184 266.282 874.873 255 881C254.376 881.338 253.752 881.675 253.108 882.023C250.065 883.669 247.028 885.326 244 887C243.395 885.191 243.395 885.191 243 883C243.913 881.342 244.841 879.691 245.84 878.083C247.108 875.807 247.919 873.58 248.754 871.113C251.179 864.299 254.18 857.795 257.25 851.25C257.539 850.633 257.828 850.017 258.125 849.381C260.066 845.246 262.027 841.12 264 837C264.393 836.178 264.785 835.355 265.19 834.508C270.243 824.066 276.784 815.028 284 806C284.437 805.446 284.873 804.893 285.323 804.322C296.953 789.657 310.467 775.516 326 765C326.691 764.529 327.383 764.058 328.095 763.573C340.987 754.892 354.488 747.608 369 742C357.421 741.604 347.396 744.109 336.309 747.116C331.326 748.451 326.397 749.508 321.312 750.375C315.787 751.437 310.835 753.036 305.688 755.25C305.066 755.513 304.444 755.777 303.804 756.048C299 758.23 294.873 761.118 290.595 764.189C287.279 766.503 283.84 768.559 280.366 770.626C270.354 776.601 261.445 782.977 253 791C252.384 791.575 251.769 792.15 251.134 792.742C222.54 819.59 209.174 851.295 205 890C202.156 888.723 200.26 887.476 198.223 885.121C197.716 884.539 197.209 883.956 196.687 883.356C196.151 882.723 195.615 882.09 195.062 881.438C194.495 880.774 193.928 880.111 193.344 879.427C162.087 842.492 138.305 802.892 141 753C141.824 744.831 143.893 736.921 146 729C139.266 732.442 133.744 737.128 128 742C127.133 742.729 127.133 742.729 126.249 743.474C106.907 759.753 92.7498 778.208 80 800C79.01 799.67 78.02 799.34 77 799C75.8221 796.201 74.8424 793.513 73.9375 790.625C73.6736 789.804 73.4098 788.984 73.1379 788.138C71.2567 782.15 69.751 776.242 69 770C68.8904 769.113 68.7809 768.226 68.668 767.312C65.0323 733.185 75.9613 699.519 97.135 672.651C103.95 664.244 111.443 656.486 119.062 648.812C119.623 648.247 120.184 647.682 120.761 647.1C124.754 643.123 124.754 643.123 127 642C125.804 642.144 124.607 642.289 123.375 642.438C122.702 642.519 122.029 642.6 121.336 642.684C119.686 642.907 118.043 643.19 116.41 643.516C99.4937 645.918 82.5617 643.514 66 640C65.67 639.01 65.34 638.02 65 637C66.03 636.55 67.0599 636.1 68.1211 635.637C97.769 622.373 123.17 600.755 144 576C145.228 574.571 145.228 574.571 146.48 573.113C151.435 567.333 156.28 561.474 161 555.5C161.457 554.925 161.913 554.35 162.384 553.757C164.839 550.625 167.036 547.462 169 544C167.903 543.807 166.806 543.613 165.676 543.414C164.221 543.151 162.767 542.888 161.312 542.625C160.231 542.436 160.231 542.436 159.127 542.242C155.201 541.525 151.661 540.661 148 539C151.708 535.704 155.609 533.573 159.993 531.347C170.076 526.185 177.158 521.062 184 512C184.672 511.156 185.343 510.311 186.035 509.441C190.555 503.444 193.435 497.032 196 490C196.362 489.136 196.724 488.273 197.098 487.383C198.443 482.338 198.471 477.326 198.625 472.125C198.664 471.055 198.702 469.985 198.742 468.883C198.836 466.255 198.922 463.628 199 461C184.115 462.612 169.607 466.349 155.037 469.681C92.8889 483.858 92.8889 483.858 61 464C58.9317 462.397 56.9715 460.724 55 459C57 457 57 457 59.125 455.812C65.7672 451.625 70.5393 447.066 74 440C73.3589 440.012 72.7179 440.023 72.0574 440.035C64.5931 440.11 57.2459 439.645 49.8125 439C48.6697 438.905 47.527 438.809 46.3496 438.711C43.566 438.478 40.7829 438.241 38 438C41.8832 433.892 46.0667 430.58 50.625 427.25C60.027 420.285 69.0273 412.994 77.6758 405.105C79.7127 403.26 81.7827 401.469 83.875 399.688C97.4412 387.742 106.351 375.665 113.34 358.906C114.819 355.365 116.488 351.941 118.188 348.5C121.578 341.274 123.306 333.762 125 326C125.99 326 126.98 326 128 326C128.66 327.32 129.32 328.64 130 330C129.636 319.414 127.645 311.715 121.5 303.062C118.864 298.722 118.864 298.722 119.429 295.723C119.777 294.921 120.125 294.119 120.484 293.293C123.351 286.164 125.777 278.962 128.014 271.613C128.504 270.038 129.017 268.469 129.551 266.908C133.112 256.955 133.112 256.955 131.593 246.845C129.672 243.052 127.32 239.558 125 236C123.637 232.957 122.647 229.895 121.75 226.688C121.514 225.876 121.278 225.065 121.034 224.229C117.961 213.049 116.433 201.489 115 190C114.913 189.326 114.826 188.651 114.736 187.956C114.078 182.546 113.84 177.225 113.832 171.777C113.828 170.923 113.823 170.069 113.819 169.189C113.809 166.438 113.809 163.688 113.812 160.938C113.814 159.52 113.814 159.52 113.816 158.074C113.911 121.177 116.181 71.6375 133 38Z" fill="#FAF9FA"/>
<path d="M416 455C451.366 454.366 451.366 454.366 458.316 458.316C460.25 460.399 461.551 462.55 463 465C463.869 466.245 464.751 467.481 465.641 468.711C468.815 473.103 471.91 477.548 475 482C485.8 497.538 496.865 512.347 510 526C510.485 526.507 510.971 527.014 511.471 527.537C519.434 536.283 519.434 536.283 529 543C532.138 542.331 532.138 542.331 533.195 539.83C533.573 538.883 533.951 537.936 534.34 536.961C534.761 535.912 535.183 534.863 535.617 533.782C536.053 532.658 536.489 531.533 536.938 530.375C537.607 528.673 537.607 528.673 538.291 526.936C542.101 517.088 544.984 507.366 547 497C547.99 497.33 548.98 497.66 550 498C551.041 500.402 551.88 502.69 552.664 505.176C552.902 505.897 553.139 506.619 553.384 507.362C554.142 509.675 554.884 511.994 555.625 514.312C556.132 515.864 556.64 517.416 557.148 518.967C566.173 546.607 563.152 574.073 550.096 599.936C545.107 609.332 538.941 617.948 532 626C531.167 626.967 530.335 627.934 529.477 628.93C505.82 655.834 472.64 670.026 440.855 684.957C419.125 695.179 397.509 705.76 376.362 717.146C371.086 719.965 365.736 722.616 360.363 725.246C358.76 726.034 357.158 726.823 355.555 727.611C353.157 728.791 350.758 729.966 348.351 731.127C338.79 735.738 330.102 740.706 321.636 747.129C319 749 319 749 317 749C317 749.66 317 750.32 317 751C316.215 751.308 316.215 751.308 315.415 751.623C312.979 752.59 310.552 753.576 308.125 754.562C307.303 754.885 306.48 755.208 305.633 755.541C300.049 757.831 295.38 760.66 290.509 764.213C287.236 766.544 283.817 768.572 280.366 770.626C270.354 776.601 261.445 782.977 253 791C252.076 791.862 252.076 791.862 251.134 792.742C222.54 819.59 209.174 851.295 205 890C202.156 888.723 200.26 887.476 198.223 885.121C197.716 884.538 197.209 883.956 196.687 883.356C196.151 882.723 195.615 882.09 195.062 881.437C194.495 880.774 193.928 880.111 193.344 879.427C162.087 842.492 138.305 802.892 141 753C141.824 744.831 143.893 736.921 146 729C139.266 732.442 133.744 737.128 128 742C127.422 742.486 126.844 742.973 126.249 743.474C106.907 759.753 92.7498 778.208 80 800C79.01 799.67 78.02 799.34 77 799C75.8221 796.2 74.8424 793.512 73.9375 790.625C73.5417 789.394 73.5417 789.394 73.1379 788.138C71.2567 782.15 69.751 776.242 69 770C68.8904 769.113 68.7809 768.226 68.668 767.312C65.0323 733.185 75.9613 699.519 97.135 672.651C103.95 664.244 111.443 656.486 119.062 648.812C119.623 648.247 120.184 647.682 120.761 647.1C124.754 643.123 124.754 643.123 127 642C125.206 642.216 125.206 642.216 123.375 642.437C122.702 642.519 122.029 642.6 121.336 642.684C119.686 642.907 118.043 643.19 116.41 643.516C99.4937 645.918 82.5617 643.514 66 640C65.67 639.01 65.34 638.02 65 637C66.5449 636.325 66.5449 636.325 68.1211 635.637C97.769 622.373 123.17 600.755 144 576C144.819 575.047 145.637 574.095 146.48 573.113C151.435 567.333 156.28 561.474 161 555.5C161.457 554.925 161.913 554.35 162.384 553.757C164.839 550.625 167.036 547.462 169 544C167.903 543.807 166.806 543.613 165.676 543.414C164.221 543.151 162.767 542.888 161.312 542.625C160.591 542.499 159.87 542.372 159.127 542.242C155.201 541.525 151.661 540.661 148 539C161.72 527.236 178.801 521.487 196 517C194.213 527.226 191.996 537.315 189.595 547.412C189.085 549.629 188.633 551.844 188.207 554.078C185.95 564.297 180.429 570.071 173 577C172.042 577.905 171.084 578.81 170.098 579.742C166.84 582.736 163.684 585.544 160 588C165.642 587.418 170.818 586.354 176.25 584.75C181.955 583.105 187.663 581.581 193.441 580.216C202.261 578.127 210.658 575.497 219.086 572.147C221.038 571.381 223.017 570.683 225 570C225.66 570.33 226.32 570.66 227 571C212.786 585.66 197.219 597.109 180 608C209.351 600.635 238.105 592.442 262 573C263.331 571.996 264.663 570.996 266 570C266.513 593.752 264.673 615.933 259 639C266.237 627.253 273.142 615.501 279 603C279.393 602.19 279.787 601.38 280.192 600.545C283.507 593.554 285.9 586.503 288 579.062C288.34 577.869 288.681 576.676 289.031 575.446C292.613 562.46 294.922 549.305 297 536C310.498 553.251 315.105 583.465 316.625 604.75C316.737 606.258 316.737 606.258 316.852 607.797C316.925 608.887 316.925 608.887 317 610C333.006 595.079 342.117 568.546 348 548C348.99 548 349.98 548 351 548C352.3 551.163 353.589 554.331 354.875 557.5C355.422 558.83 355.422 558.83 355.98 560.187C357.831 564.763 359.4 569.211 360.503 574.02C361.459 577.829 362.858 581.495 364.188 585.187C367.938 595.744 371.489 606.362 375 617C374.019 617.463 373.039 617.925 372.029 618.402C371.375 618.71 370.721 619.019 370.047 619.337C368.57 620.034 367.092 620.731 365.615 621.428C361.505 623.366 357.397 625.308 353.291 627.254C339.095 633.978 339.095 633.978 332.918 636.758C313.541 645.539 295.608 657.126 278 669C276.251 670.168 274.501 671.334 272.75 672.5C272.023 672.985 271.296 673.469 270.547 673.969C270.036 674.309 269.526 674.649 269 675C272.426 675 273.556 674.301 276.465 672.586C277.341 672.075 278.218 671.564 279.121 671.037C280.515 670.214 280.515 670.214 281.938 669.375C291.439 663.864 300.769 658.547 311.066 654.641C312.208 654.206 313.35 653.771 314.526 653.322C316.246 652.668 316.246 652.668 318 652C320.062 651.203 322.123 650.405 324.184 649.605C330.782 647.051 337.39 644.522 344 642C344.994 641.618 345.987 641.237 347.011 640.844C356.573 637.187 366.024 633.833 376 631.5C391.746 627.802 406.572 621.757 421.375 615.312C422.415 614.861 423.455 614.41 424.526 613.945C431.275 610.947 437.423 607.575 443.414 603.262C450.317 598.347 457.641 595.819 465.592 593.051C474.143 590.043 482.046 586.319 490 582C490.597 581.686 491.194 581.372 491.81 581.048C501.39 576.008 509.676 569.882 518 563C514.695 560.796 512.163 560.183 508.312 559.25C486.688 553.671 467.76 543.452 450 530C449 529.273 447.999 528.546 446.969 527.797C423.634 510.725 395.58 488.29 381 463C387.907 463.584 394.653 464.56 401.461 465.848C402.414 466.024 403.367 466.2 404.349 466.381C407.358 466.938 410.367 467.5 413.375 468.062C416.405 468.629 419.435 469.194 422.465 469.754C424.343 470.101 426.219 470.452 428.095 470.806C428.943 470.963 429.791 471.12 430.666 471.281C431.408 471.421 432.151 471.56 432.916 471.703C435.309 472.094 435.309 472.094 439 472C437.389 471.004 437.389 471.004 435.746 469.988C434.31 469.096 432.874 468.204 431.438 467.312C430.733 466.877 430.029 466.442 429.303 465.994C424.741 463.156 420.257 460.283 416 457C416 456.34 416 455.68 416 455Z" fill="#FAF9FA"/>
<path d="M326.312 385.562C327.478 385.568 328.644 385.574 329.846 385.58C339.162 385.714 339.162 385.714 343 388C305.134 412.282 305.134 412.282 288.688 412.062C287.804 412.053 286.921 412.044 286.012 412.035C285.348 412.023 284.684 412.012 284 412C284 412.66 284 413.32 284 414C284.513 414.135 285.026 414.271 285.555 414.41C292.102 416.251 298.384 418.63 304.699 421.135C319.533 427.014 334.535 432.344 349.635 437.496C352.931 438.623 356.222 439.76 359.514 440.898C374.076 445.895 388.762 450.844 404.188 452.25C405.326 452.364 405.326 452.364 406.488 452.48C416.3 453.353 426.16 453.182 436 453C431.635 448.53 427.198 444.243 422.457 440.176C419.786 437.81 417.193 435.373 414.598 432.924C403.739 422.681 392.241 413.94 380.01 405.409C376.992 403.293 373.996 401.148 371 399C374.153 397.423 377.227 398.65 380.562 399.312C395.299 402.237 409.864 403.353 424.866 403.316C427.498 403.312 430.129 403.336 432.762 403.361C445.397 403.408 458.179 402.865 470 398C472.812 397.875 472.812 397.875 475 398C472.701 400.602 470.572 401.791 467.367 403.086C466.479 403.46 465.591 403.834 464.676 404.219C462.805 404.991 460.93 405.754 459.051 406.508C458.165 406.884 457.28 407.261 456.367 407.648C455.554 407.98 454.74 408.312 453.902 408.654C451.771 409.885 451.771 409.885 451.141 412.474C450.937 416.129 452.399 417.81 454.438 420.812C467.613 441.099 475.656 464.32 483.336 487.127C483.905 488.731 484.568 490.3 485.25 491.859C486 494 486 494 485 497C479.813 490.201 474.782 483.316 469.875 476.312C463.449 466.742 463.449 466.742 456 458C453.247 457.608 450.514 457.281 447.75 457C446.499 456.87 446.499 456.87 445.223 456.737C435.502 455.776 425.758 455.369 416 455C418.717 457.873 421.428 460.085 424.766 462.199C426.1 463.053 426.1 463.053 427.461 463.924C428.381 464.506 429.302 465.088 430.25 465.687C432.091 466.855 433.929 468.025 435.766 469.199C436.984 469.97 436.984 469.97 438.228 470.757C438.812 471.167 439.397 471.577 440 472C440 472.33 440 472.66 440 473C430.019 472.257 420.266 470.32 410.438 468.5C407.816 468.016 405.194 467.532 402.571 467.053C400.95 466.757 399.329 466.457 397.709 466.155C392.486 465.199 387.283 464.538 382 464C394.019 479.66 408.039 494.711 423.156 507.426C424.479 508.555 425.767 509.724 427.031 510.918C452.83 535.17 483.622 552.727 518 561C518 561.99 518 562.98 518 564C516.15 565.813 514.354 567.363 512.312 568.937C511.691 569.417 511.069 569.896 510.429 570.39C496.063 581.143 480.319 588.502 463.609 594.844C456.725 597.459 450.032 600.058 443.938 604.25C424.764 616.722 401.467 626.477 379.192 631.649C368.445 634.15 358.179 637.537 347.853 641.401C345.241 642.378 342.623 643.339 340.004 644.297C330.615 647.756 321.384 651.454 312.258 655.56C309.589 656.74 306.929 657.817 304.188 658.812C292.299 663.475 280.77 670.189 270 677C269.34 676.34 268.68 675.68 268 675C278.036 667.932 288.199 661.13 298.688 654.75C299.575 654.209 300.463 653.668 301.377 653.111C304.239 651.385 307.115 649.687 310 648C310.854 647.498 310.854 647.498 311.724 646.987C323.012 640.387 334.661 634.723 346.5 629.187C349.164 627.935 351.827 626.681 354.49 625.427C356.128 624.656 357.766 623.886 359.405 623.119C364.309 620.82 369.164 618.44 374 616C372.507 611.786 371.014 607.573 369.52 603.36C369.014 601.931 368.507 600.503 368.001 599.074C367.267 597.001 366.532 594.928 365.797 592.855C365.437 591.841 365.437 591.841 365.071 590.805C363.343 585.938 361.57 581.089 359.758 576.252C359.03 574.089 358.534 571.993 358.125 569.75C357.111 564.597 355.055 559.876 353.032 555.052C351 550.184 351 550.184 351 548C350.01 548 349.02 548 348 548C347.897 548.949 347.794 549.897 347.688 550.875C344.405 572.847 330.081 593.85 318 612C315.162 609.162 315.412 606.134 315.062 602.312C312.74 580.58 307.762 557.667 298 538C297.581 539.916 297.165 541.833 296.75 543.75C296.472 545.034 296.193 546.318 295.906 547.641C295.273 550.622 294.698 553.609 294.156 556.609C289.137 584.042 278.907 620.23 258 640C258.287 638.751 258.575 637.502 258.871 636.215C260.097 630.691 261.095 625.136 262.062 619.562C262.236 618.59 262.409 617.617 262.588 616.615C264.506 605.614 265.14 595.046 265.062 583.875C265.056 582.011 265.056 582.011 265.049 580.109C265.037 577.073 265.021 574.036 265 571C264.128 571.798 264.128 571.798 263.238 572.611C243.492 590.456 217.886 599.255 192.562 605.937C191.358 606.257 190.153 606.576 188.912 606.905C187.787 607.193 186.663 607.481 185.504 607.777C183.985 608.168 183.985 608.168 182.436 608.566C180 609 180 609 178 608C178.579 607.653 179.157 607.307 179.753 606.949C195.586 597.46 195.586 597.46 210 586C210.552 585.505 211.104 585.011 211.672 584.501C218.929 578.279 218.929 578.279 225 571C223.5 571.619 223.5 571.619 221.969 572.25C209.985 577.004 197.807 580.243 185.297 583.246C184.632 583.406 183.967 583.565 183.282 583.73C182.305 583.964 182.305 583.964 181.309 584.203C176.138 585.444 171.056 586.815 165.999 588.457C163.299 589.19 160.776 589.219 158 589C158.695 588.457 159.39 587.915 160.105 587.355C163.277 584.774 166.303 582.079 169.312 579.312C169.843 578.834 170.373 578.355 170.92 577.861C172.648 576.274 174.324 574.642 176 573C176.676 572.377 177.352 571.753 178.049 571.111C184.402 564.77 186.313 558.007 188.312 549.437C188.646 548.096 188.981 546.756 189.318 545.415C191.57 536.349 193.584 527.236 195 518C194.47 518.187 193.941 518.374 193.395 518.567C190.996 519.408 188.592 520.235 186.188 521.062C184.937 521.504 184.937 521.504 183.662 521.955C182.86 522.229 182.057 522.503 181.23 522.785C180.492 523.042 179.754 523.298 178.993 523.563C177 524 177 524 174 523C174.641 522.322 175.281 521.644 175.941 520.945C184.782 511.433 191.498 502.343 196 490C196.362 489.136 196.724 488.273 197.098 487.383C198.443 482.338 198.471 477.326 198.625 472.125C198.683 470.52 198.683 470.52 198.742 468.883C198.836 466.255 198.922 463.628 199 461C184.115 462.612 169.607 466.349 155.037 469.681C92.8889 483.857 92.8889 483.857 61 464C58.9317 462.397 56.9715 460.724 55 459C55.99 458.01 55.99 458.01 57 457C60.4272 457.365 61.2241 458.209 63.875 460.687C75.3155 470.984 90.6176 471.804 105.179 471.218C112.212 470.675 118.925 468.672 125.712 466.848C131.838 465.268 138.017 463.912 144.189 462.522C147.997 461.662 151.803 460.792 155.609 459.922C156.705 459.671 156.705 459.671 157.822 459.416C163.803 458.048 169.78 456.665 175.75 455.25C176.58 455.053 177.41 454.857 178.264 454.654C182.982 453.523 187.646 452.264 192.312 450.937C235.462 439.57 275.032 445.391 316.793 459.055C319.859 459.958 322.838 460.549 326 461C326 460.34 326 459.68 326 459C325.43 458.751 324.86 458.502 324.273 458.246C321.654 456.81 319.798 455.113 317.625 453.062C311.99 447.903 306.058 443.23 300.017 438.562C297.835 436.872 295.661 435.171 293.488 433.469C285.429 427.162 277.349 420.921 269 415C270.129 411.612 270.545 411.378 273.473 409.652C274.2 409.217 274.927 408.781 275.676 408.332C276.464 407.872 277.251 407.412 278.062 406.937C279.709 405.955 281.355 404.972 283 403.988C283.835 403.491 284.671 402.995 285.531 402.483C289.876 399.873 294.154 397.155 298.432 394.437C299.648 393.671 300.87 392.916 302.099 392.171C303.422 391.356 304.72 390.501 305.996 389.616C312.623 385.343 318.583 385.341 326.312 385.562Z" fill="#AF9DA4"/>
<path d="M562 538C569.804 545.466 571.642 556.835 573.91 567.078C574.84 570.83 576.372 574.172 577.986 577.674C579.68 581.559 580.891 585.556 582.062 589.625C582.448 590.958 582.448 590.958 582.841 592.318C585.5 602.028 586.696 611.883 587.706 621.881C587.96 624.184 587.96 624.184 589 627C594.289 656.842 590.675 686.892 577 714C576.623 714.769 576.246 715.538 575.857 716.331C563.768 740.904 546.349 761.028 525 778C522.886 779.739 520.786 781.493 518.688 783.25C517.27 784.433 517.27 784.433 515.824 785.641C514.892 786.419 513.96 787.198 513 788C512.477 788.43 511.955 788.86 511.417 789.303C508.366 791.792 508.366 791.792 505.598 794.582C497.71 801.583 484.336 804.718 474.465 807.734C473.351 808.075 472.237 808.417 471.09 808.768C457.73 812.782 444.197 816.098 430.657 819.441C406.654 825.372 382.748 831.55 359 838.438C357.91 838.752 356.819 839.067 355.696 839.391C352.649 840.274 349.605 841.164 346.562 842.059C345.687 842.314 344.811 842.57 343.908 842.833C339.099 844.266 334.586 845.966 330 848C328.55 848.514 327.092 849.009 325.625 849.473C321.019 850.973 316.51 852.672 312 854.438C310.886 854.868 310.886 854.868 309.75 855.307C305.2 857.08 300.722 858.975 296.269 860.98C293.99 862.004 291.703 863.008 289.414 864.008C277.663 869.184 266.282 874.873 255 881C254.064 881.506 254.064 881.506 253.108 882.023C250.065 883.669 247.028 885.326 244 887C243.395 885.191 243.395 885.191 243 883C243.913 881.342 244.841 879.691 245.84 878.083C247.108 875.807 247.919 873.58 248.754 871.113C251.179 864.299 254.18 857.795 257.25 851.25C257.683 850.325 257.683 850.325 258.125 849.381C260.066 845.246 262.027 841.12 264 837C264.393 836.178 264.785 835.355 265.19 834.508C270.243 824.066 276.784 815.028 284 806C284.437 805.446 284.873 804.893 285.323 804.322C296.953 789.657 310.468 775.516 326 765C326.691 764.529 327.383 764.058 328.095 763.573C340.987 754.892 354.488 747.608 369 742C359.983 741.691 352.238 742.827 343.57 745.211C334.689 747.644 326.278 749.796 317 750C330.534 739.084 345.045 731.691 360.625 724.062C365.161 721.828 369.694 719.588 374.227 717.348C375.327 716.805 376.428 716.262 377.563 715.702C385.691 711.681 393.728 707.508 401.736 703.254C408.252 699.797 414.839 696.483 421.438 693.188C422.445 692.683 422.445 692.683 423.473 692.169C433.16 687.326 442.912 682.654 452.75 678.125C496.252 658.09 537.603 633.396 555.242 586.146C560.86 570.249 561.899 554.785 562 538Z" fill="#FB0F44"/>
<path d="M490.156 344.031C488.682 341.174 488.682 341.174 487 339C484.324 338.124 482.674 337.864 479.922 338.418C472.569 341.023 465.035 342.801 457.426 344.471L455 345C439.062 348.568 423.545 349.712 407.221 349.972L405 350V351C413.154 354.344 421.296 357.612 428.614 362.581C445.102 374.111 462.746 382.654 481.547 389.719L485 391C482.145 392.817 479.295 394.361 476.188 395.687L473 397L474 399C470.747 400.66 467.517 402.342 464.165 403.796L462.164 404.648C460.797 405.245 459.43 405.842 458.062 406.437C454.531 407.881 451.566 408.781 449.875 412.422C450 415 450 415 451.152 417.332C459.486 428.911 465.241 441.818 470.287 455.107L471 457C471.983 459.603 472.963 462.207 473.938 464.812C475.241 468.334 476.546 471.854 477.929 475.346L478.898 477.766C479.536 479.365 480.174 480.964 480.812 482.562C481.955 485.352 483.09 488.125 484 491C484.47 494.455 484.561 497.243 486.312 500.266L488 502.25L489.945 504.578L492 507C502.645 520.807 515.094 533.458 529 544L530.789 543.469C533.512 541.66 533.512 541.66 535.537 536.694L536.375 534.5C537.3 532.154 538.212 529.806 539.098 527.445L540 525C542.906 517.128 546.022 509.275 546.875 500.875L547 497L549 498C549.644 499.633 550.274 501.273 550.827 502.939L551.496 505.035C552.23 507.267 552.963 509.499 553.686 511.735C554.427 514.03 555.174 516.323 555.924 518.615C556.407 520.088 556.889 521.562 557.371 523.035C559.378 529.247 561.273 535.617 564.246 541.441C566.981 546.31 568.669 551.026 570.062 556.437C570.92 559.867 571.757 563.281 572.891 566.633C577.435 578.61 582.358 591.097 584.25 603.812C584.659 607.229 585.087 610.615 585.703 614C589.562 634.867 591.869 654.814 588.451 675.94L587.812 679.625C586.443 687.652 584.516 694.889 581.216 702.347L580 705C569.866 728.162 557.198 748.652 538.062 765.5C535.923 767.332 533.809 769.176 531.734 771.082C527.058 775.389 522.275 779.385 517.188 783.187C512.727 786.464 509.386 789.676 506 794C509.069 793.592 511.796 793.079 514.69 791.959L517.422 790.664L520.502 789.205L523.75 787.625C544.097 777.751 563.959 766.035 579.68 749.516L582 747C594.812 733.556 605.162 719.289 614.636 703.314L616 701C631.68 674.53 637.171 640.539 631.746 610.348L631 607C625.206 580.721 614.04 558.277 600.344 535.335C596.824 529.45 593.307 523.565 589.896 517.615L588.879 515.836C587.563 513.537 586.25 511.238 584.938 508.937C579.719 499.709 574.584 490.391 567 482.875C564.439 480.416 562.006 477.939 559.688 475.25C557.661 472.892 555.609 470.574 553.504 468.285C534.533 447.813 516.994 426.345 505 401L532 408L533 406C529.683 401.461 526.25 397.037 522.688 392.687C521.121 390.795 519.558 388.899 518 387L515.562 383.887L513.188 380.875C511.117 378.212 509.933 376.332 506.738 375.195L504.135 370.178C502.164 366.834 500.248 363.474 498.449 360.035L496.844 356.906C495.729 354.771 494.614 352.635 493.5 350.5L491.816 347.18L490.156 344.031Z" fill="#AF9DA4"/>
<path d="M209 641C209.33 641.66 209.66 642.32 210 643C208.738 645.487 207.419 647.854 206 650.25C205.157 651.719 204.316 653.189 203.477 654.66C203.055 655.396 202.634 656.133 202.2 656.891C186.811 683.932 181.972 713.255 181.375 744C181.337 745.661 181.298 747.323 181.258 748.984C181.163 752.989 181.079 756.995 181 761C181.66 761 182.32 761 183 761C183.227 760.216 183.454 759.433 183.688 758.625C185.41 753.867 187.657 749.48 190 745C190.483 744.076 190.967 743.152 191.465 742.2C202.342 721.829 202.342 721.829 208 719C206.495 723.937 204.5 728.611 202.472 733.347C198.294 743.128 194.468 752.644 192 763C191.491 765.064 190.982 767.128 190.473 769.191C189.393 773.604 188.321 778.018 187.27 782.438C187.049 783.364 186.828 784.291 186.601 785.246C185.167 791.817 184.867 797.943 184.902 804.648C184.904 805.661 184.905 806.673 184.907 807.717C184.912 810.936 184.925 814.156 184.938 817.375C184.943 819.564 184.947 821.753 184.951 823.941C184.962 829.294 184.979 834.647 185 840C185.66 840 186.32 840 187 840C187.071 839.219 187.142 838.438 187.215 837.633C188.286 832.675 190.36 828.425 192.562 823.875C193.014 822.937 193.466 821.999 193.932 821.033C197.433 813.898 201.24 807.382 206 801C206.77 799.948 207.539 798.896 208.332 797.812C214.072 790.085 220.339 782.942 227 776C228.363 774.575 228.363 774.575 229.754 773.121C235.82 766.917 242.215 761.395 249 756C249.838 755.295 250.676 754.59 251.539 753.863C264.405 743.038 277.711 733.98 293 727C294.824 726.155 296.648 725.31 298.473 724.465C312.275 718.113 326.025 712.108 340.5 707.438C341.614 707.064 342.728 706.691 343.875 706.307C361.381 700.639 379.68 698.136 397.812 695.312C399.782 695.002 401.751 694.692 403.721 694.381C411.142 693.212 418.561 692.044 426 691C422.569 693.81 418.8 695.721 414.84 697.66C413.794 698.179 413.794 698.179 412.728 698.708C411.239 699.446 409.749 700.183 408.258 700.918C404.351 702.845 400.451 704.786 396.551 706.727C395.789 707.106 395.027 707.485 394.241 707.875C388.3 710.836 382.419 713.896 376.573 717.041C371.22 719.894 365.796 722.587 360.348 725.254C358.747 726.041 357.147 726.828 355.546 727.615C353.152 728.793 350.756 729.967 348.352 731.126C338.791 735.737 330.102 740.706 321.636 747.129C319 749 320 750 318 750C318 750.66 317 750.32 317 751C316.215 751.309 316.215 751.309 315.415 751.623C312.979 752.59 310.552 753.576 308.125 754.562C307.303 754.885 306.48 755.208 305.633 755.541C300.049 757.831 295.38 760.661 290.509 764.213C287.236 766.544 283.817 768.573 280.366 770.626C270.354 776.601 261.445 782.977 253 791C252.076 791.862 252.076 791.862 251.134 792.742C222.54 819.59 209.174 851.295 205 890C202.156 888.723 200.26 887.476 198.223 885.121C197.716 884.539 197.209 883.956 196.687 883.356C196.151 882.723 195.615 882.09 195.062 881.438C194.495 880.774 193.928 880.111 193.344 879.427C162.087 842.492 138.305 802.892 141 753C141.824 744.831 143.893 736.921 146 729C139.266 732.442 133.744 737.128 128 742C127.422 742.486 126.844 742.973 126.249 743.474C106.907 759.753 92.7498 778.208 80 800C79.01 799.67 78.02 799.34 77 799C75.8221 796.201 74.8424 793.513 73.9375 790.625C73.6736 789.804 73.4098 788.984 73.1379 788.138C71.2567 782.15 69.751 776.242 69 770C68.8904 769.113 68.7809 768.226 68.668 767.312C68.3728 764.542 68.1683 761.781 68 759C67.9227 757.949 67.8453 756.899 67.7656 755.816C67.7192 754.763 67.6728 753.71 67.625 752.625C67.5515 751.19 67.5515 751.19 67.4766 749.727C68.2068 745.923 70.1986 744.624 73 742C74.7478 739.641 76.3004 737.164 77.875 734.688C88.7201 718.161 102.685 708.068 120 699C121.263 698.334 121.263 698.334 122.551 697.654C131.501 692.934 140.481 688.275 149.504 683.695C171.907 672.277 191.36 659.104 209 641Z" fill="#AF9DA4"/>
<path d="M133 38C138.715 42.058 143.752 46.4669 148.682 51.439C149.764 52.5183 149.764 52.5183 150.868 53.6194C153.231 55.9784 155.587 58.3445 157.942 60.7109C159.595 62.3651 161.248 64.0189 162.902 65.6723C166.358 69.1306 169.812 72.5923 173.263 76.0566C177.671 80.4821 182.086 84.9009 186.504 89.3175C189.916 92.7299 193.325 96.145 196.734 99.561C198.36 101.191 199.987 102.819 201.615 104.448C203.895 106.73 206.172 109.016 208.448 111.302C209.111 111.965 209.775 112.628 210.459 113.312C214.288 117.167 217.938 121.131 221.485 125.247C223.563 127.651 225.719 129.979 227.875 132.312C232.798 137.711 237.419 143.312 242 149C243.582 150.939 245.165 152.876 246.75 154.812C247.486 155.716 248.222 156.62 248.981 157.551C250.643 159.566 252.341 161.536 254.063 163.5C256 166 256 166 256 169C249.739 171.297 243.646 173.138 237.063 174.25C214.48 178.564 193.046 190.017 175 204C173.539 205.127 173.539 205.127 172.047 206.277C158.783 216.819 149.733 228.641 140.598 242.695C139.885 243.786 139.172 244.876 138.438 246C137.818 246.969 137.198 247.939 136.559 248.938C136.045 249.618 135.53 250.299 135 251C134.34 251 133.68 251 133 251C121.604 231.91 117.73 211.887 115 190C114.913 189.326 114.826 188.651 114.737 187.956C114.078 182.546 113.841 177.225 113.832 171.777C113.828 170.923 113.824 170.069 113.819 169.189C113.809 166.438 113.809 163.688 113.813 160.938C113.814 159.993 113.815 159.048 113.817 158.074C113.911 121.177 116.182 71.6375 133 38Z" fill="#AF9DA4"/>
<path d="M582 589.312C580.558 584.231 579.361 580.156 576 576C576.431 597.381 576.665 618.231 572.538 639.314L572 642C570.034 652.559 566.941 662.745 563.782 672.998L563.125 675.125C559.037 688.438 554.324 701.363 548.374 713.974L547.188 716.438C541.281 728.759 535 738.5 527.5 745.5C526.604 746.336 525 747.938 522 750.5C503.249 766.513 464.601 771.86 440.969 774.957C434.907 775.74 428.863 776.603 422.824 777.551L420 778C409.884 779.576 399.845 781.398 389.812 783.438C382.63 784.902 375.448 786.3 368.219 787.521C360.312 788.852 352.415 790.236 344.553 791.814L341.5 792.438C335.388 793.603 330.503 794.761 325.578 798.682L324 800C312.789 808.422 301.893 817.116 291.638 826.688C289.329 828.845 287.016 830.986 284.645 833.074C280.992 836.218 277.44 839.4 274.066 842.844L272 845C270.437 846.622 268.879 848.247 267.331 849.882L265.688 851.625C262.837 854.596 260.401 857.141 258.645 860.898L258 863H256C252.735 866.103 249.711 869.465 247.812 873.562C247.115 875.95 247.115 875.95 245.969 877.719C244.896 879.43 243.942 881.214 243 883C243.387 885.215 243.387 885.215 244 887C247.028 885.326 250.065 883.669 253.108 882.023L255 881C266.282 874.873 277.663 869.184 289.414 864.008C291.703 863.008 293.99 862.004 296.269 860.98C300.722 858.975 305.2 857.08 309.75 855.307L312 854.438C316.51 852.672 321.019 850.973 325.625 849.473C327.092 849.009 328.55 848.514 330 848C334.586 845.966 339.099 844.266 343.908 842.833L346.562 842.059C349.605 841.164 352.649 840.274 355.696 839.391L359 838.438C382.748 831.55 406.654 825.372 430.657 819.441L432.016 819.106C445.102 815.875 458.177 812.648 471.09 808.768L474.465 807.734C484.336 804.718 497.71 801.583 505.598 794.582C508.366 791.792 508.366 791.792 511.417 789.303L513 788L515.824 785.641L518.688 783.25C520.786 781.493 522.886 779.739 525 778C546.349 761.028 563.768 740.904 575.857 716.331L577 714C590.675 686.892 594.289 656.842 589 627C587.96 624.184 587.96 624.184 587.706 621.881C586.687 611.797 585.458 601.872 582.792 592.074L582 589.312Z" fill="#A00228"/>
<path d="M326.312 385.562C327.478 385.568 328.644 385.574 329.846 385.58C339.162 385.714 339.162 385.714 343 388C305.134 412.282 305.134 412.282 288.688 412.062C287.804 412.053 286.921 412.044 286.012 412.035C285.348 412.023 284.684 412.012 284 412C284 412.66 284 413.32 284 414C284.513 414.135 285.026 414.271 285.555 414.41C292.193 416.276 298.565 418.688 304.96 421.247C308.746 422.758 312.518 424.199 316.402 425.437C325.665 428.448 331.017 432.162 337 440C338.49 441.592 339.99 443.176 341.5 444.75C350.328 454.593 356.386 466.122 362 478C351.912 475.589 341.962 472.749 332 469.875C329.625 469.191 327.251 468.509 324.876 467.826C323.411 467.405 321.946 466.984 320.482 466.561C318.656 466.035 316.828 465.517 315 465C314.245 464.769 313.489 464.539 312.711 464.301C310.756 463.817 310.756 463.817 308 465C307.309 465.117 306.618 465.235 305.906 465.355C301.635 466.303 297.605 467.813 293.5 469.312C292.658 469.608 291.816 469.904 290.949 470.209C284.663 472.501 280.073 474.639 276.855 480.769C275.064 484.657 273.65 488.626 272.312 492.687C266.694 509.071 259.724 525.025 251 540C250.343 541.13 249.685 542.261 249.008 543.426C245.929 548.192 243.698 551.4 238 552.687C236.337 552.843 234.669 552.949 233 553C231.909 553.114 231.909 553.114 230.797 553.23C224.5 553.675 221.242 550.939 216.688 547C214.231 545.172 212.12 544.082 209.332 542.875C208.521 542.522 207.71 542.169 206.874 541.805C206.256 541.539 205.637 541.274 205 541C202.916 543.562 200.833 546.125 198.75 548.687C198.163 549.409 197.577 550.13 196.973 550.873C196.399 551.579 195.825 552.285 195.234 553.012C194.676 553.697 194.117 554.382 193.541 555.087C192.234 556.709 190.964 558.361 189.703 560.019C189.141 560.673 188.579 561.327 188 562C187.34 562 186.68 562 186 562C186.561 555.727 187.656 549.986 189.375 543.937C191.731 535.359 193.513 526.767 195 518C194.47 518.187 193.941 518.374 193.395 518.567C190.996 519.408 188.592 520.235 186.188 521.062C184.937 521.504 184.937 521.504 183.662 521.955C182.86 522.229 182.057 522.503 181.23 522.785C180.492 523.042 179.754 523.298 178.993 523.563C177 524 177 524 174 523C174.641 522.322 175.281 521.644 175.941 520.945C184.782 511.433 191.498 502.343 196 490C196.362 489.136 196.724 488.273 197.098 487.383C198.443 482.338 198.471 477.326 198.625 472.125C198.683 470.52 198.683 470.52 198.742 468.883C198.836 466.255 198.922 463.628 199 461C184.115 462.612 169.607 466.349 155.037 469.681C92.8889 483.857 92.8889 483.857 61 464C58.9317 462.397 56.9715 460.724 55 459C55.99 458.01 55.99 458.01 57 457C60.4272 457.365 61.2241 458.209 63.875 460.687C75.3155 470.984 90.6176 471.804 105.179 471.218C112.212 470.675 118.925 468.672 125.712 466.848C131.838 465.268 138.017 463.912 144.189 462.522C147.997 461.662 151.803 460.792 155.609 459.922C156.705 459.671 156.705 459.671 157.822 459.416C163.803 458.048 169.78 456.665 175.75 455.25C176.58 455.053 177.41 454.857 178.264 454.654C182.982 453.523 187.646 452.264 192.312 450.937C235.462 439.57 275.032 445.391 316.793 459.055C319.859 459.958 322.838 460.549 326 461C326 460.34 326 459.68 326 459C325.43 458.751 324.86 458.502 324.273 458.246C321.654 456.81 319.798 455.113 317.625 453.062C311.99 447.903 306.058 443.23 300.017 438.562C297.835 436.872 295.661 435.171 293.488 433.469C285.429 427.162 277.349 420.921 269 415C270.129 411.612 270.545 411.378 273.473 409.652C274.2 409.217 274.927 408.781 275.676 408.332C276.464 407.872 277.251 407.412 278.062 406.937C279.709 405.955 281.355 404.972 283 403.988C283.835 403.491 284.671 402.995 285.531 402.483C289.876 399.873 294.154 397.155 298.432 394.437C299.648 393.671 300.87 392.916 302.099 392.171C303.422 391.356 304.72 390.501 305.996 389.616C312.623 385.343 318.583 385.341 326.312 385.562Z" fill="#FB0F44"/>
<path d="M423 38C423.99 38.33 424.98 38.66 426 39C426.888 41.312 426.888 41.312 427.613 44.4297C427.889 45.5997 428.164 46.7697 428.448 47.9751C428.733 49.2621 429.019 50.549 429.312 51.875C429.462 52.5357 429.612 53.1964 429.766 53.8771C435.59 79.637 439.782 105.68 442 132C442.071 132.816 442.141 133.631 442.214 134.472C444.334 160.188 444.49 187.554 440 213C440.736 212.783 441.472 212.567 442.23 212.344C443.206 212.065 444.182 211.787 445.188 211.5C446.632 211.082 446.632 211.082 448.105 210.656C450.853 210.033 453.196 209.877 456 210C454.648 214.084 452.931 216.377 449.812 219.312C445.628 223.356 441.73 227.535 438 232C437.372 232.721 436.744 233.441 436.098 234.184C433.366 237.851 431.339 241.754 429.25 245.812C428.633 246.995 428.633 246.995 428.004 248.201C426.998 250.132 425.998 252.065 425 254C418.961 254.125 413.398 253.77 407.465 252.688C406.701 252.554 405.937 252.421 405.149 252.284C402.744 251.863 400.341 251.432 397.938 251C396.292 250.71 394.647 250.421 393.002 250.133C389 249.43 385 248.718 381 248C381.575 244.786 382.416 243.241 384.809 241.039C385.386 240.492 385.964 239.944 386.56 239.38C387.179 238.801 387.799 238.222 388.438 237.625C396.149 230.189 403.49 221.835 408 212C406.886 212.681 405.772 213.361 404.625 214.062C402.727 215.223 402.727 215.223 401 216C400.34 215.67 399.68 215.34 399 215C399.524 210.713 400.878 208.55 403.688 205.312C411.304 196.097 416.123 185.822 421 175C418.604 176.864 416.308 178.672 414.227 180.887C410.93 184.016 407.186 186.354 403.375 188.812C402.211 189.585 402.211 189.585 401.023 190.373C400.281 190.855 399.538 191.336 398.773 191.832C398.097 192.273 397.421 192.713 396.724 193.167C396.155 193.442 395.586 193.717 395 194C394.34 193.67 393.68 193.34 393 193C393.291 192.392 393.583 191.783 393.883 191.156C397.432 183.567 400.408 175.826 403.275 167.961C403.774 166.612 404.285 165.267 404.805 163.925C406.27 160.138 407.463 156.513 408.188 152.5C408.346 151.644 408.505 150.788 408.668 149.906C408.778 149.277 408.887 148.648 409 148C403.558 150.842 399.446 154.105 395.062 158.375C390.848 162.385 386.692 166.236 381.93 169.598C378.649 171.982 375.588 174.647 372.492 177.266C369.748 179.175 367.202 180.09 364 181C366.425 170.34 369.676 159.931 372.878 149.485C373.803 146.47 374.723 143.453 375.643 140.436C377.134 135.548 378.636 130.664 380.143 125.781C380.968 123.104 381.785 120.426 382.602 117.747C385.376 108.721 388.378 99.9408 392.25 91.3125C392.721 90.2529 393.192 89.1933 393.677 88.1016C397.404 79.9109 401.756 72.421 406.735 64.9463C409.087 61.3268 411.256 57.5987 413.438 53.875C414.057 52.826 414.057 52.826 414.69 51.7559C416.454 48.7494 418.117 45.762 419.66 42.6328C421 40 421 40 423 38Z" fill="#FB0F44"/>
<path d="M285 284C285.495 285.485 285.495 285.485 286 287C284.383 289.41 284.383 289.41 282.125 292.062C279.269 295.338 279.269 295.338 277 299C295.48 299 313.96 299 333 299C330.365 301.635 328.282 303.654 325.34 305.742C324.638 306.244 323.936 306.746 323.213 307.263C322.462 307.795 321.711 308.327 320.938 308.875C319.318 310.033 317.7 311.192 316.082 312.352C315.246 312.95 314.41 313.548 313.549 314.165C307.025 318.861 300.572 323.655 294.112 328.44C292.208 329.846 290.297 331.243 288.383 332.637C284.124 335.765 280.036 338.804 276.375 342.625C257.1 362.738 224.947 365.03 198.625 365.625C197.195 365.663 195.766 365.702 194.336 365.742C190.891 365.837 187.446 365.921 184 366C184.33 364.68 184.66 363.36 185 362C181.37 363.32 177.74 364.64 174 366C176.244 360.391 176.244 360.391 178.434 357.645C178.912 357.031 179.391 356.418 179.884 355.785C180.396 355.134 180.909 354.483 181.438 353.812C185.97 347.951 189.943 341.953 193.688 335.562C204.434 317.482 220.546 308.333 240.535 302.82C243.659 302.081 246.694 301.593 249.875 301.188C261.874 299.348 276.371 292.629 285 284Z" fill="#FB0F44"/>
<path d="M133 38C147.889 48.5578 147.889 48.5578 149.571 58.1328C150.33 63.2012 150.934 68.2819 151.5 73.375C152.2 79.6212 152.941 85.8204 154.055 92.0078C155.109 98.1755 155.451 104.251 155.625 110.5C155.682 112.292 155.682 112.292 155.74 114.12C156.26 133.072 156.084 152.043 156 171C148.495 166.965 148.495 166.965 145.535 163.242C144.962 162.533 144.389 161.824 143.799 161.094C143.226 160.362 142.653 159.629 142.063 158.875C141.493 158.166 140.924 157.457 140.338 156.727C139.174 155.273 138.014 153.816 136.86 152.354C134.77 149.709 132.666 147.077 130.559 144.445C129.88 143.597 129.201 142.749 128.502 141.875C128.006 141.257 127.511 140.638 127 140C126.453 157.316 126.262 173.379 131.428 190.11C132.018 192.06 132.52 194.02 133 196C124.737 192.011 117.721 186.615 114 178C111.455 166.146 113.019 153.169 113.855 141.185C114.05 138.245 114.171 135.303 114.293 132.359C115.804 103.353 119.982 64.0372 133 38Z" fill="#FB0F44"/>
<path d="M436 734C432.861 737.472 429.211 738.486 424.875 739.938C398.504 749.229 374.099 763.424 351 779C350.116 779.592 350.116 779.592 349.213 780.196C344.032 783.69 339.523 787.372 335.188 791.875C330.883 796.337 326.313 799.807 321.247 803.322C312.123 809.657 303.887 816.915 295.758 824.457C293.597 826.45 291.417 828.397 289.188 830.313C271.816 845.095 271.816 845.095 258 863C255.206 866.01 252.358 868.637 249 871C250.333 866.792 251.907 862.823 253.758 858.816C254.566 857.065 254.566 857.065 255.391 855.278C255.968 854.039 256.546 852.801 257.125 851.563C257.566 850.619 257.566 850.619 258.016 849.656C259.994 845.43 261.991 841.212 264 837C264.396 836.17 264.791 835.341 265.199 834.486C270.249 824.053 276.79 815.021 284 806C284.437 805.446 284.873 804.893 285.323 804.322C296.953 789.658 310.468 775.516 326 765C326.691 764.529 327.383 764.058 328.095 763.573C346.203 751.38 365.322 741.536 386.91 737.613C389.896 737.162 389.896 737.162 392 736C395.608 735.493 399.245 735.238 402.875 734.938C403.942 734.848 405.008 734.759 406.107 734.667C416.085 733.889 425.999 733.801 436 734Z" fill="#F8F4F5"/>
<path d="M440 246C443.024 247.334 444.911 248.727 447.059 251.23C447.885 252.189 447.885 252.189 448.729 253.166C449.574 254.167 449.574 254.167 450.438 255.188C450.998 255.835 451.558 256.483 452.135 257.15C454.788 260.25 457.295 263.364 459.602 266.73C461.711 269.743 463.994 271.885 466.938 274.125C471.713 277.896 476.23 281.859 480.688 286C481.312 286.576 481.936 287.153 482.58 287.747C484.075 289.142 485.54 290.568 487 292C487 292.33 487 292.66 487 293C484.292 293.338 481.584 293.67 478.875 294C478.114 294.095 477.354 294.191 476.57 294.289C475.449 294.424 475.449 294.424 474.305 294.562C473.624 294.646 472.943 294.73 472.242 294.816C469.489 295.042 466.761 295.028 464 295C464.393 295.75 464.785 296.5 465.19 297.272C466.68 300.121 468.167 302.971 469.652 305.822C470.289 307.043 470.927 308.264 471.566 309.484C475.965 317.884 480.108 326.35 484 335C474.841 333.34 466.543 328.26 459.062 322.875C450.394 316.665 441.031 311.677 431.713 306.518C429.358 305.2 427.024 303.855 424.699 302.484C410.078 293.899 394.519 286.97 378 283C381.11 280.926 383.567 280.438 387.168 279.676C409.731 274.292 425.761 264.226 440 246Z" fill="#AF9DA4"/>
<path d="M437 520C441.223 522.713 445.372 525.502 449.375 528.531C458.199 535.203 467.218 540.841 477 546C477.602 546.325 478.204 546.65 478.824 546.984C491.322 553.716 504.18 557.835 518 561C518 561.99 518 562.98 518 564C516.15 565.813 514.354 567.363 512.312 568.938C511.691 569.417 511.069 569.896 510.429 570.39C492.6 583.735 470.956 594.764 449 599C440.446 580.241 434.621 563.206 434.75 542.312C434.742 541.046 434.735 539.779 434.727 538.475C434.74 531.969 435.03 526.215 437 520Z" fill="#0D090A"/>
<path d="M357 332C358.971 332.175 360.942 332.35 362.913 332.524C370.954 333.242 378.978 334.087 387 335C383.772 337.693 380.604 339.909 376.895 341.883C375.433 342.666 375.433 342.666 373.941 343.466C372.909 344.013 371.876 344.561 370.812 345.125C368.643 346.287 366.474 347.45 364.305 348.613C362.699 349.473 362.699 349.473 361.062 350.35C356.831 352.63 352.632 354.966 348.438 357.312C346.974 358.125 345.511 358.938 344.047 359.75C341.551 361.135 339.062 362.531 336.578 363.937C308.797 379.3 277.1 392.696 245.625 397.687C244.858 397.817 244.091 397.947 243.301 398.08C239.494 398.701 235.872 399.162 232 399C235.928 394.812 240.171 391.528 244.875 388.25C245.633 387.72 246.39 387.19 247.171 386.643C253.474 382.278 259.953 378.311 266.568 374.438C271.949 371.256 277.283 367.996 282.625 364.75C283.233 364.381 283.84 364.012 284.466 363.632C291.505 359.359 298.535 355.071 305.533 350.73C307.248 349.668 308.967 348.611 310.69 347.561C314.746 345.078 318.697 342.535 322.555 339.754C334.236 331.534 342.985 330.598 357 332Z" fill="#AF9DA4"/>
<path d="M326.312 385.562C327.478 385.568 328.644 385.574 329.846 385.58C339.162 385.714 339.162 385.714 343 388C305.134 412.282 305.134 412.282 288.688 412.062C287.804 412.053 286.921 412.044 286.012 412.035C285.348 412.023 284.684 412.012 284 412C284 412.66 284 413.32 284 414C284.513 414.135 285.026 414.271 285.555 414.41C292.193 416.276 298.565 418.688 304.96 421.247C308.746 422.758 312.518 424.199 316.402 425.437C325.665 428.448 331.017 432.162 337 440C338.49 441.592 339.99 443.176 341.5 444.75C350.328 454.593 356.386 466.122 362 478C352.75 475.784 343.61 473.236 334.471 470.611C332.109 469.933 329.746 469.258 327.383 468.584C325.862 468.149 324.341 467.713 322.82 467.277C322.123 467.078 321.426 466.879 320.708 466.674C316.772 465.541 312.877 464.324 309 463C313.602 459.932 318.153 459.769 323.5 460.437C324.737 460.716 324.737 460.716 326 461C326 460.34 326 459.68 326 459C325.43 458.751 324.86 458.502 324.273 458.246C321.654 456.81 319.798 455.113 317.625 453.062C311.99 447.903 306.058 443.23 300.017 438.562C297.835 436.872 295.661 435.171 293.488 433.469C285.429 427.162 277.349 420.921 269 415C270.129 411.612 270.545 411.378 273.473 409.652C274.2 409.217 274.927 408.781 275.676 408.332C276.464 407.872 277.251 407.412 278.062 406.937C279.709 405.955 281.355 404.972 283 403.988C283.835 403.491 284.671 402.995 285.531 402.483C289.876 399.873 294.154 397.155 298.432 394.437C299.648 393.671 300.87 392.916 302.099 392.171C303.422 391.356 304.72 390.501 305.996 389.616C312.623 385.343 318.583 385.341 326.312 385.562Z" fill="#FB0F44"/>
<path d="M398 80C400.272 82.2719 400.476 83.2732 401.148 86.3477C401.347 87.2511 401.546 88.1546 401.751 89.0854C401.957 90.0679 402.163 91.0503 402.375 92.0625C402.591 93.0759 402.807 94.0892 403.03 95.1333C407.377 115.992 410.199 136.814 411.052 158.093C411.143 160.119 411.253 162.144 411.382 164.167C412.447 181.058 412.447 181.058 408.884 185.839C406.303 187.653 403.925 188.846 401 190C399.771 190.781 398.558 191.588 397.375 192.438C396.591 192.953 395.808 193.469 395 194C394.34 193.67 393.68 193.34 393 193C393.291 192.392 393.583 191.783 393.883 191.156C397.432 183.567 400.408 175.826 403.275 167.961C403.774 166.612 404.285 165.267 404.805 163.925C406.27 160.138 407.463 156.513 408.188 152.5C408.346 151.644 408.505 150.788 408.668 149.906C408.778 149.277 408.887 148.648 409 148C403.558 150.842 399.446 154.105 395.062 158.375C390.848 162.385 386.692 166.236 381.93 169.598C378.649 171.982 375.588 174.647 372.492 177.266C369.748 179.175 367.202 180.09 364 181C366.425 170.34 369.676 159.931 372.878 149.485C373.803 146.47 374.723 143.453 375.643 140.436C377.134 135.548 378.636 130.664 380.144 125.781C380.968 123.104 381.784 120.425 382.6 117.745C385.37 108.718 388.414 99.9923 392.312 91.375C392.754 90.3721 393.196 89.3692 393.65 88.3359C396.829 81.1713 396.829 81.1713 398 80Z" fill="#FB0F44"/>
<path d="M277 320C278.008 328.605 275.453 333.778 271 341C270.317 342.325 269.644 343.656 269 345C270.98 345.495 270.98 345.495 273 346C251.686 362.044 224.7 365.036 198.625 365.625C197.195 365.663 195.766 365.702 194.336 365.742C190.891 365.837 187.446 365.921 184 366C185.842 361.073 187.25 358.212 191.562 355C192.912 353.991 192.912 353.991 194.289 352.961C195.631 351.99 195.631 351.99 197 351C197.73 350.435 198.459 349.871 199.211 349.289C206.825 343.599 215.318 339.399 223.777 335.127C225.642 334.182 227.494 333.213 229.344 332.238C242.902 325.441 261.642 319.347 277 320Z" fill="#F81B4C"/>
<path d="M319 460C319 460.33 319 460.66 319 461C317.515 461.247 317.515 461.247 316 461.5C315.443 461.593 314.886 461.686 314.312 461.781C308.326 462.347 302.764 461.944 296.855 460.906C265.515 455.703 232.377 453.833 201 460C200.67 460.33 200.34 460.66 200 461C198.035 461.264 196.065 461.486 194.094 461.695C182.062 463.149 170.297 466.168 158.5 468.875C92.9524 483.897 92.9524 483.897 61 464C58.9317 462.397 56.9715 460.724 55 459C55.66 458.34 56.32 457.68 57 457C60.4272 457.365 61.2241 458.209 63.875 460.687C75.3155 470.984 90.6176 471.804 105.179 471.218C112.212 470.675 118.925 468.672 125.712 466.848C131.838 465.268 138.017 463.912 144.189 462.522C147.997 461.662 151.803 460.792 155.609 459.922C156.34 459.755 157.07 459.588 157.822 459.416C163.803 458.048 169.78 456.665 175.75 455.25C176.58 455.053 177.41 454.857 178.264 454.654C182.982 453.523 187.646 452.264 192.312 450.937C235.988 439.432 276.952 445.163 319 460Z" fill="#AF9DA4"/>
<path d="M371 398C372.174 398.193 373.349 398.387 374.559 398.586C376.185 398.849 377.811 399.112 379.438 399.375C380.201 399.501 380.965 399.628 381.752 399.758C384.498 400.199 387.247 400.605 390 401C391.232 401.177 392.464 401.354 393.733 401.537C404.121 402.941 414.389 403.342 424.866 403.316C427.498 403.313 430.129 403.336 432.762 403.361C445.397 403.408 458.179 402.865 470 398C472.812 397.875 472.812 397.875 475 398C472.701 400.602 470.572 401.791 467.367 403.086C466.479 403.46 465.591 403.834 464.676 404.219C462.805 404.991 460.93 405.754 459.051 406.508C458.165 406.884 457.28 407.261 456.367 407.648C455.554 407.98 454.74 408.312 453.902 408.654C451.771 409.885 451.771 409.885 451.141 412.474C450.937 416.129 452.399 417.81 454.438 420.812C467.613 441.1 475.656 464.32 483.336 487.127C483.905 488.731 484.568 490.3 485.25 491.859C486 494 486 494 485 497C479.261 489.478 473.733 481.835 468.315 474.079C465.712 470.369 463.062 466.757 460.188 463.25C456.902 459.11 454.593 454.634 452.164 449.953C448.006 442.164 443.118 434.761 438.423 427.289C437.396 425.638 436.408 423.962 435.444 422.273C434.202 419.886 434.202 419.886 432 419C429.738 419.071 427.477 419.201 425.219 419.359C397.801 420.859 397.801 420.859 386.469 411.143C385.198 409.982 383.943 408.803 382.708 407.603C380.277 405.322 377.659 403.582 374.875 401.75C373.565 400.859 372.265 399.953 371 399C371 398.67 371 398.34 371 398Z" fill="#FB0F44"/>
<path d="M448 600C443.903 604.625 439.47 607.202 434 610C433.148 610.451 432.296 610.902 431.418 611.367C414.998 619.864 397.244 627.457 379.192 631.649C368.445 634.15 358.179 637.537 347.853 641.401C345.241 642.378 342.623 643.339 340.004 644.297C330.615 647.756 321.384 651.454 312.258 655.56C309.589 656.74 306.929 657.817 304.188 658.813C292.299 663.475 280.77 670.189 270 677C269.34 676.34 268.68 675.68 268 675C278.036 667.932 288.199 661.131 298.688 654.75C300.019 653.939 300.019 653.939 301.377 653.111C304.239 651.385 307.115 649.687 310 648C310.572 647.665 311.145 647.329 311.734 646.984C322.015 640.992 332.549 635.665 343.308 630.588C345.87 629.377 348.425 628.154 350.98 626.93C365.355 620.085 379.887 613.437 395.5 610C396.509 609.768 397.518 609.536 398.558 609.296C402.034 608.508 405.515 607.75 409 607C409.702 606.849 410.403 606.697 411.126 606.541C416.497 605.384 421.872 604.248 427.25 603.125C427.999 602.968 428.748 602.81 429.52 602.648C431.663 602.2 433.808 601.759 435.953 601.32C437.812 600.938 437.812 600.938 439.708 600.547C442.56 600.073 445.121 599.885 448 600Z" fill="#FB0F44"/>
<path d="M614 689C617.625 689.375 617.625 689.375 621 690C619.021 695.765 616.621 700.645 613.312 705.75C612.871 706.442 612.43 707.133 611.975 707.846C610.658 709.903 609.33 711.952 608 714C607.29 715.106 606.579 716.212 605.848 717.352C599.11 727.678 591.41 736.998 583 746C581.803 747.296 581.803 747.296 580.582 748.617C564.439 765.468 544.604 777.504 523.75 787.625C522.678 788.147 521.606 788.668 520.502 789.205C519.486 789.687 518.469 790.168 517.422 790.664C516.52 791.092 515.619 791.519 514.69 791.959C511.796 793.079 505.569 796.592 502.5 797C505.886 792.676 512.727 786.464 517.188 783.188C522.275 779.386 527.058 775.389 531.734 771.082C533.809 769.176 535.923 767.332 538.062 765.5C552.832 752.496 563.935 737.404 573 720C574.441 724.322 573.531 727.766 572 732C569.625 734.625 569.625 734.625 567 737C565.512 739.273 564.273 741.595 563 744C570.788 739.815 574.754 734.672 579 727C580.945 729.918 581.453 731.625 582 735C582.66 735 583.32 735 584 735C584.093 733.948 584.093 733.948 584.188 732.875C585.308 728.911 587.161 726.978 590 724C590.66 724 591.32 724 592 724C595.929 716.233 599.35 708.446 601.91 700.117C603 698 603 698 604.887 697.105C608.444 696.928 610.825 698.473 614 700C614 699.01 614 698.02 614 697C612.68 697 611.36 697 610 697C611.75 691.25 611.75 691.25 614 689Z" fill="#AF9DA4"/>
<path d="M388 199C388.66 199.33 389.32 199.66 390 200C385.38 209.9 380.76 219.8 376 230C378.64 230 381.28 230 384 230C386.969 230.438 386.969 230.438 389.5 231C390.784 231.278 390.784 231.278 392.094 231.562C392.723 231.707 393.352 231.851 394 232C391.039 235.549 388.053 239.012 384.75 242.25C381.935 244.886 381.935 244.886 380 248C374.895 247.449 369.791 246.897 364.686 246.346C362.953 246.159 361.22 245.972 359.487 245.784C356.982 245.514 354.477 245.243 351.973 244.973C350.828 244.849 350.828 244.849 349.661 244.723C344.439 244.159 339.22 243.582 334 243C336.077 234.367 340.76 223.357 348.449 218.426C351.716 216.693 355.128 215.341 358.571 214.003C363.405 212.007 368.026 209.552 372.688 207.188C373.632 206.718 374.577 206.249 375.55 205.766C379.131 203.986 382.626 202.234 386.02 200.113C386.673 199.746 387.327 199.379 388 199Z" fill="#AF9DA4"/>
<path d="M340 787C334.187 793.295 328.26 798.457 321.25 803.32C312.125 809.656 303.888 816.914 295.758 824.457C293.597 826.45 291.417 828.397 289.188 830.313C271.816 845.095 271.816 845.095 258 863C255.206 866.009 252.358 868.637 249 871C250.333 866.792 251.907 862.823 253.758 858.816C254.297 857.649 254.836 856.481 255.391 855.278C255.969 854.039 256.546 852.801 257.125 851.563C257.418 850.934 257.711 850.306 258.014 849.658C262.398 840.276 266.776 830.951 272 822C272.454 821.109 272.454 821.109 272.917 820.2C279.419 807.479 289.421 803.975 302.402 799.329C306.342 797.874 310.217 796.297 314.094 794.684C315.462 794.118 316.831 793.552 318.2 792.987C320.217 792.154 322.233 791.32 324.246 790.48C326.123 789.701 328.007 788.938 329.891 788.176C330.974 787.731 332.057 787.287 333.173 786.829C336.03 785.991 337.273 785.928 340 787Z" fill="#AF9DA4"/>
<path d="M389 101C390 103 390 103 389.875 106.562C389.829 109.758 390.262 112.157 391.375 115.148C393.084 120.052 394.151 124.969 395.125 130.062C395.294 130.909 395.463 131.755 395.637 132.627C398.425 146.866 398.425 146.866 397.062 150.5C396.712 150.995 396.361 151.49 396 152C396.99 152.33 397.98 152.66 399 153C397.617 156.189 396.083 158.073 393.438 160.312C392.722 160.918 392.007 161.524 391.27 162.148C388.339 164.539 385.369 166.869 382.363 169.164C380.692 170.463 379.045 171.794 377.418 173.148C376.128 174.22 376.128 174.22 374.812 175.312C374.035 175.969 373.258 176.625 372.457 177.301C369.729 179.187 367.177 180.094 364 181C366.425 170.34 369.676 159.931 372.878 149.485C373.803 146.47 374.723 143.453 375.643 140.436C377.13 135.562 378.626 130.692 380.129 125.823C380.71 123.94 381.289 122.057 381.867 120.173C382.681 117.521 383.502 114.872 384.324 112.223C384.566 111.432 384.808 110.641 385.057 109.827C386.089 106.524 387.067 103.899 389 101Z" fill="#FB0F44"/>
<path d="M278.562 311.937C279.762 311.942 280.961 311.946 282.197 311.951C285.132 311.963 288.066 311.979 291 312C290.426 315.433 289.573 318.201 287.969 321.285C287.57 322.063 287.172 322.841 286.762 323.643C286.137 324.84 286.137 324.84 285.5 326.062C284.673 327.656 283.85 329.251 283.031 330.848C282.666 331.549 282.3 332.25 281.924 332.973C281.013 334.972 280.519 336.872 280 339C278.294 341.354 276.346 343.283 274 345C271.125 345.375 271.125 345.375 269 345C270.072 341.198 271.51 338.09 273.562 334.75C276.352 329.934 276.874 325.499 277 320C249.412 324.26 222.647 333.365 200 350C198.297 351.154 196.591 352.303 194.875 353.437C194.13 353.931 193.385 354.425 192.617 354.934C192.084 355.285 191.55 355.637 191 356C191.524 351.846 193.735 349.85 196.602 346.93C197.07 346.451 197.539 345.973 198.022 345.48C199.546 343.934 201.083 342.403 202.625 340.875C203.146 340.355 203.667 339.836 204.203 339.301C214.075 329.497 224.855 318.816 239 316C239.622 315.876 240.243 315.751 240.884 315.623C245.905 314.639 250.937 313.746 256 313C256.679 312.899 257.359 312.798 258.058 312.695C264.884 311.806 271.69 311.888 278.562 311.937Z" fill="#BA022D"/>
<path d="M341.338 387.037C342.161 387.514 342.161 387.514 343 388C319.861 402.838 299.392 413.862 271 413C276.529 406.763 284.379 402.932 291.414 398.634C293.861 397.088 296.21 395.455 298.562 393.77C310.247 385.739 327.553 380.926 341.338 387.037Z" fill="#AF9DA4"/>
<path d="M267 327C270.3 327 273.6 327 277 327C276.477 331.903 274.999 335.184 272.437 339.375C271.797 340.435 271.156 341.494 270.496 342.586C270.002 343.383 269.509 344.179 269 345C270.32 345.33 271.64 345.66 273 346C263.03 353.505 252.512 359.178 240 361C237.816 360.621 237.816 360.621 236 360C235.134 359.732 234.267 359.464 233.375 359.188C231 358 231 358 229.625 356.188C228.795 353.282 228.957 351.849 230 349C233.255 345.001 236.021 343.274 241 342C242.274 343.247 243.544 344.498 244.812 345.75C245.52 346.446 246.228 347.142 246.957 347.859C248.823 349.814 250.432 351.803 252 354C257.422 347.936 260.733 341.621 263.738 334.137C265 331 265 331 267 327Z" fill="#F9527D"/>
<path d="M231 346C231.66 346.33 232.32 346.66 233 347C232.484 347.33 231.969 347.66 231.438 348C229.668 350.462 229.928 351.255 230.312 354.188C230.653 356.075 230.653 356.075 231 358C232.98 358.33 234.96 358.66 237 359C235 362 235 362 231.52 362.914C229.954 363.17 228.384 363.406 226.812 363.625C225.962 363.75 225.112 363.875 224.235 364.003C210.93 365.755 197.401 365.766 184 366C185.89 360.91 187.518 357.944 191.875 354.5C193.14 353.464 193.14 353.464 194.43 352.406C197 351 197 351 199.641 351.18C202 352 202 352 204.875 353.625C208.886 355.39 210.733 354.941 215 354C217.867 352.796 220.582 351.358 223.312 349.875C225.854 348.504 228.382 347.228 231 346Z" fill="#F81B4C"/>
<path d="M481 339C480 342 480 342 478.14 343.072C477.328 343.395 476.516 343.718 475.68 344.051C474.763 344.417 473.846 344.783 472.901 345.16C471.903 345.54 470.904 345.921 469.875 346.312C468.851 346.708 467.826 347.103 466.771 347.51C456.933 351.202 446.905 354.098 436.656 356.402C434.837 356.812 433.027 357.259 431.225 357.738C424.05 359.445 419.79 358.492 413.312 355.125C412.504 354.734 411.695 354.344 410.861 353.941C408.895 352.987 406.945 351.997 405 351C405 350.67 405 350.34 405 350C405.733 349.991 406.466 349.981 407.221 349.972C423.545 349.712 439.063 348.57 455 345C455.822 344.82 456.644 344.64 457.491 344.455C466.475 342.498 466.475 342.498 475.281 339.883C478 339 478 339 481 339Z" fill="#AF9DA4"/>
<path d="M125 326C125.99 326 126.98 326 128 326C131.377 335.535 128.804 343.889 125 353C120.697 361.093 114.91 368.041 109 375C107.978 376.228 106.957 377.457 105.938 378.688C105.298 379.451 104.659 380.214 104 381C104 377.081 105.662 374.448 107.438 371.062C114.898 356.413 121.763 342.206 125 326Z" fill="#F9527D"/>
<path d="M198 484C198.33 484 198.66 484 199 484C199.097 491.177 198.86 498.281 198.312 505.438C198.259 506.417 198.206 507.396 198.15 508.404C197.594 515.439 197.594 515.439 194.895 517.988C193.939 518.322 192.984 518.656 192 519C190.791 519.469 189.582 519.938 188.336 520.422C187.018 520.871 185.697 521.314 184.375 521.75C183.373 522.1 183.373 522.1 182.352 522.457C177.366 524.122 177.366 524.122 174 523C174.641 522.322 175.281 521.644 175.941 520.945C186.442 509.647 193.171 498.771 198 484Z" fill="#AF9DA4"/>
<path d="M261.562 329.938C262.769 329.968 262.769 329.968 264 330C265.528 334.583 263.473 337.538 261.602 341.836C259.336 346.312 256.679 350.548 253 354C252.01 354 251.02 354 250 354C248.625 352.029 247.298 350.023 246 348C245.092 347.093 244.185 346.185 243.25 345.25C242.507 344.507 241.765 343.765 241 343C241 342.34 241 341.68 241 341C242.545 339.871 242.545 339.871 244.684 338.652C245.446 338.212 246.209 337.772 246.994 337.318C247.8 336.863 248.607 336.407 249.438 335.938C251.02 335.031 252.602 334.124 254.184 333.215C254.891 332.814 255.598 332.413 256.326 332C259.703 329.983 259.703 329.983 261.562 329.938Z" fill="#F81B4C"/>
<path d="M147 628C130.424 641.568 130.424 641.568 119 643C117.611 643.253 117.611 643.253 116.195 643.51C111.056 644.298 105.939 644.184 100.75 644.188C99.6491 644.2 98.5483 644.212 97.4141 644.225C95.8401 644.228 95.8401 644.228 94.2344 644.231C93.2776 644.235 92.3208 644.239 91.335 644.243C89 644 89 644 87 642C87.7382 641.885 88.4765 641.77 89.2371 641.652C106.178 638.964 122.32 635.566 138.244 629.087C143.7 626.9 143.7 626.9 147 628Z" fill="#AF9DA4"/>
<path d="M407 147C407.99 147 408.98 147 410 147C410.392 151.997 410.715 156.991 410.977 161.996C411.075 163.696 411.191 165.394 411.327 167.091C412.437 181.211 412.437 181.211 408.888 185.629C406.322 187.427 403.86 188.736 401 190C399.775 190.786 398.562 191.595 397.375 192.438C396.199 193.211 396.199 193.211 395 194C394.34 193.67 393.68 193.34 393 193C393.291 192.392 393.583 191.783 393.883 191.156C397.432 183.567 400.408 175.826 403.275 167.961C403.774 166.612 404.285 165.267 404.805 163.925C406.27 160.138 407.463 156.513 408.188 152.5C408.346 151.644 408.505 150.788 408.668 149.906C408.778 149.277 408.887 148.648 409 148C408.34 147.67 407.68 147.34 407 147Z" fill="#FB0F44"/>
<path d="M240.894 342.723C243.29 344.176 244.805 345.75 246.625 347.875C247.215 348.553 247.806 349.231 248.414 349.93C249.913 351.887 250.986 353.761 252 356C251.34 356 250.68 356 250 356C250 356.66 250 357.32 250 358C248.421 358.534 246.836 359.051 245.25 359.563C244.368 359.853 243.486 360.143 242.578 360.442C239.872 361.028 238.574 360.898 236 360C235.134 359.732 234.267 359.464 233.375 359.188C231 358 231 358 229.625 356.188C228.795 353.282 228.957 351.849 230 349C236.759 341.145 236.759 341.145 240.894 342.723Z" fill="#BA022D"/>
<path d="M277 320C277 322.31 277 324.62 277 327C276.301 327.026 275.603 327.051 274.883 327.078C273.518 327.163 273.518 327.163 272.125 327.25C271.22 327.296 270.315 327.343 269.383 327.391C266.829 327.756 266.829 327.756 265.68 330.047C265.343 331.014 265.343 331.014 265 332C264.67 331.34 264.34 330.68 264 330C263.135 330.326 262.27 330.652 261.378 330.988C258.012 331.996 255.441 332.231 251.945 332.195C250.837 332.189 249.728 332.182 248.586 332.176C247.444 332.159 246.302 332.142 245.125 332.125C243.96 332.116 242.794 332.107 241.594 332.098C238.729 332.074 235.865 332.041 233 332C235.988 329.508 238.594 328.311 242.324 327.246C243.354 326.949 244.383 326.652 245.443 326.346C246.514 326.046 247.584 325.746 248.688 325.437C249.739 325.134 250.79 324.83 251.873 324.517C268.897 319.655 268.897 319.655 277 320Z" fill="#F81B4C"/>
<path d="M207 264C207.99 264.33 208.98 264.66 210 265C207.337 269.946 204.454 274.105 200.75 278.312C199.772 279.446 198.796 280.58 197.82 281.715C197.342 282.269 196.864 282.823 196.372 283.394C192.049 288.454 187.898 293.641 184.125 299.125C183.424 300.074 182.723 301.022 182 302C181.34 302 180.68 302 180 302C184.805 285.716 194.203 274.831 207 264Z" fill="#FB0F44"/>
<path d="M231 346C231.66 346.33 232.32 346.66 233 347C232.484 347.33 231.969 347.66 231.438 348C229.668 350.462 229.928 351.255 230.312 354.188C230.653 356.075 230.653 356.075 231 358C233.97 358.495 233.97 358.495 237 359C235 362 235 362 231.551 362.977C230.142 363.218 228.729 363.433 227.312 363.625C226.588 363.723 225.864 363.822 225.117 363.923C221.676 364.245 219.444 364.244 216.387 362.562C214.667 360.796 213.274 359.106 212 357C215.204 353.536 218.881 351.82 223.062 349.75C224.162 349.185 224.162 349.185 225.283 348.609C227.157 347.673 229.076 346.829 231 346Z" fill="#F81B4C"/>
<path d="M456 210C454.648 214.084 452.931 216.377 449.812 219.313C446.149 222.84 442.769 226.471 439.508 230.371C438 232 438 232 435 234C435.888 219.61 435.888 219.61 439 214C441.541 212.259 444.003 211.592 447 211C447.687 210.817 448.374 210.634 449.082 210.445C451.424 209.902 453.605 209.934 456 210Z" fill="#AF9DA4"/>
<path d="M421 266C421.66 266.33 422.32 266.66 423 267C415.291 275.006 407.038 279.504 397 284C396.098 284.409 395.195 284.817 394.266 285.238C388.954 287.024 383.045 284.892 378 283C381.11 280.926 383.567 280.438 387.168 279.676C397.392 277.236 406.668 273.47 415.897 268.503C417.57 267.615 419.283 266.8 421 266Z" fill="#AF9DA4"/>
<path d="M300 654C300.66 654.33 301.32 654.66 302 655C302.625 657.062 302.625 657.062 303 659C302.356 659.332 301.711 659.664 301.047 660.006C298.071 661.543 295.098 663.084 292.125 664.625C291.112 665.147 290.099 665.669 289.055 666.207C282.556 669.581 276.229 673.151 270 677C269.34 676.34 268.68 675.68 268 675C286.304 662.307 286.304 662.307 294.562 657.125C296.08 656.17 296.08 656.17 297.629 655.195C298.411 654.801 299.194 654.406 300 654Z" fill="#FB0F44"/>
<path d="M562 533C566.419 535.485 567.498 539.133 569.016 543.703C569.276 544.459 569.537 545.215 569.806 545.994C570.353 547.592 570.894 549.193 571.429 550.795C572.244 553.233 573.085 555.662 573.93 558.09C574.46 559.648 574.989 561.206 575.516 562.766C575.766 563.486 576.016 564.206 576.273 564.948C577.766 569.483 578.248 573.726 578 578.5C575.5 580 570.878 564.443 569.016 557C566.516 547.043 567.563 546.481 562 538C561.959 536.334 561.957 534.666 562 533Z" fill="#FB0F44"/>
<path d="M125 326C125.99 326 126.98 326 128 326C130.709 333.65 129.84 339.426 127 347C126.34 347 125.68 347 125 347C125 344.69 125 342.38 125 340C124.01 339.67 123.02 339.34 122 339C122.99 334.71 123.98 330.42 125 326Z" fill="#BA022D"/>
<path d="M116 354C116.33 354 116.66 354 117 354C118.679 357.08 119.328 359.487 119 363C115.872 367.846 112.054 371.917 108 376C107.509 376.496 107.018 376.991 106.512 377.502C105.346 378.673 104.174 379.837 103 381C104.682 376.528 106.783 372.319 108.938 368.062C109.285 367.372 109.632 366.682 109.99 365.971C110.671 364.618 111.352 363.266 112.035 361.915C113.363 359.28 114.682 356.64 116 354Z" fill="#AF9DA4"/>
<path d="M238 348C238.33 348.33 238.66 348.66 239 349C238.911 350.525 238.755 352.047 238.563 353.562C238.461 354.389 238.359 355.215 238.254 356.066C238.17 356.704 238.086 357.343 238 358C235.688 358.687 235.688 358.687 233 359C230.335 357.382 230.001 356.004 229.125 353C229 350 229 350 230.063 348.062C232.936 346.487 234.914 347.195 238 348Z" fill="#FAF9FA"/>
<path d="M317 749.999C303.499 762.499 331.525 752.641 338 751L371 739.5C368.764 739.45 348.764 741.95 339.903 743.325L337.508 743.613C335.714 743.848 333.919 744.081 332.125 744.312C326.004 745.028 321.528 745.405 317 749.999Z" fill="#FB0F44"/>
<path d="M152 262C152.33 262 152.66 262 153 262C152.429 271.756 151.395 281.331 150 291C147.387 288.387 147.688 286.445 147.621 282.878C147.622 282.073 147.624 281.267 147.625 280.438C147.624 279.624 147.622 278.811 147.621 277.973C147.73 271.779 148.805 267.391 152 262Z" fill="#FB0F44"/>
<path d="M408 200C409.6 203.201 408.032 205.723 407 209C407.99 209.33 408.98 209.66 410 210C404.304 214.747 404.304 214.747 401 216C400.34 215.67 399.68 215.34 399 215C399.511 210.497 401.175 208.125 404.062 204.688C404.796 203.804 405.529 202.921 406.285 202.012C406.851 201.348 407.417 200.684 408 200Z" fill="#FAF9FA"/>
<path d="M205 341C205.33 342.32 205.66 343.64 206 345C204.441 346.275 202.877 347.545 201.312 348.812C200.442 349.52 199.572 350.228 198.676 350.957C196.2 352.847 193.702 354.457 191 356C191.431 351.59 194.422 349.17 197.438 346.25C197.941 345.743 198.444 345.237 198.963 344.715C202.733 341 202.733 341 205 341Z" fill="#BA022D"/>
<path d="M277 320C277 322.31 277 324.62 277 327C274.03 327 271.06 327 268 327C268 325.02 268 323.04 268 321C270.957 319.522 273.742 319.94 277 320Z" fill="#F81B4C"/>
<path d="M408 622C384.418 630.932 384.418 630.932 373 633C373.33 632.01 373.66 631.02 374 630C376.636 628.941 376.636 628.941 380.117 627.992C381.987 627.472 381.987 627.472 383.895 626.941C385.221 626.586 386.548 626.23 387.875 625.875C389.194 625.513 390.513 625.15 391.832 624.785C394.255 624.118 396.679 623.456 399.105 622.8C405.28 621.093 405.28 621.093 408 622Z" fill="#FB0F44"/>
<path d="M275 333C275.99 333.33 276.98 333.66 278 334C277.497 338.322 276.805 341.594 274 345C271.312 345.312 271.312 345.312 269 345C270.319 340.385 272.214 336.901 275 333Z" fill="#BA022D"/>
<path d="M286 666C286 666.66 286 667.32 286 668C280.72 670.97 275.44 673.94 270 677C269.34 676.34 268.68 675.68 268 675C270.239 673.297 272.49 671.613 274.75 669.938C275.384 669.452 276.018 668.967 276.672 668.467C277.6 667.785 277.6 667.785 278.547 667.09C279.112 666.666 279.678 666.241 280.261 665.804C282.529 664.755 283.695 665.185 286 666Z" fill="#FB0F44"/>
<path d="M373 617C373.66 617.33 374.32 617.66 375 618C370.227 621.173 365.454 623.851 360.172 626.082C358.773 626.673 357.386 627.294 356.016 627.949C352.504 629.607 350.686 630.175 347 629C350.661 627.263 354.328 625.536 357.999 623.818C359.247 623.232 360.495 622.643 361.741 622.052C363.529 621.203 365.323 620.365 367.117 619.527C368.196 619.019 369.275 618.511 370.386 617.988C371.249 617.662 372.111 617.336 373 617Z" fill="#FB0F44"/>
<path d="M239 317C239 317.99 239 318.98 239 320C240.32 320.66 241.64 321.32 243 322C241 324 241 324 238 324.25C235 324 235 324 233 322C231.683 321.303 230.351 320.63 229 320C232.73 317.966 234.669 317 239 317Z" fill="#BA022D"/>
<path d="M227 321C227.66 321.33 228.32 321.66 229 322C228.072 322.34 228.072 322.34 227.125 322.688C224.377 324.385 224.068 326.025 223 329C220.291 330.354 217.991 330.065 215 330C218.366 326.213 222.416 323.173 227 321Z" fill="#BA022D"/>
<path d="M448 600C443.375 604.875 443.375 604.875 440 606C440 605.01 440 604.02 440 603C437.36 603 434.72 603 432 603C432 602.67 432 602.34 432 602C433.728 601.661 435.458 601.329 437.188 601C438.15 600.814 439.113 600.629 440.105 600.438C442.793 600.031 445.288 599.921 448 600Z" fill="#FB0F44"/>
<path d="M419 175C419.66 175 420.32 175 421 175C420.549 176.461 420.089 177.918 419.625 179.375C419.37 180.187 419.115 180.999 418.852 181.836C418 184 418 184 416 186C415.34 184.35 414.68 182.7 414 181C415.616 178.959 417.286 176.959 419 175Z" fill="#FAF9FA"/>
<path d="M268 344C269.65 344.33 271.3 344.66 273 345C269.723 348.67 266.285 350.693 262 353C263.527 349.564 265.599 346.881 268 344Z" fill="#BA022D"/>
<path d="M183 293C183.99 293.99 184.98 294.98 186 296C184.726 298.038 183.389 300.039 182 302C181.34 302 180.68 302 180 302C180.99 299.03 181.98 296.06 183 293Z" fill="#FB0F44"/>
<path d="M381.688 628.937C382.9 628.951 382.9 628.951 384.137 628.965C385.059 628.982 385.059 628.982 386 629C386 629.33 386 629.66 386 630C381.71 630.99 377.42 631.98 373 633C373.33 632.01 373.66 631.02 374 630C376.882 629.039 378.699 628.894 381.688 628.937Z" fill="#FB0F44"/>
<path d="M282 665C283.32 665.33 284.64 665.66 286 666C286 666.66 286 667.32 286 668C284.188 669.062 284.188 669.062 282 670C281.01 669.67 280.02 669.34 279 669C279.99 667.68 280.98 666.36 282 665Z" fill="#FB0F44"/>
<path d="M398 212C398.33 212.99 398.66 213.98 399 215C399.66 215.33 400.32 215.66 401 216C399.188 217.062 399.188 217.062 397 218C396.01 217.67 395.02 217.34 394 217C395.32 215.35 396.64 213.7 398 212Z" fill="#FAF9FA"/>
<path d="M207 719C207.33 719.66 207.66 720.32 208 721C207.066 723.031 206.068 725.035 205 727C204.01 727 203.02 727 202 727C203.372 724.046 204.989 721.56 207 719Z" fill="#AF9DA4"/>
<path d="M398 80C398.33 80 398.66 80 399 80C399.262 83.1463 399.248 84.6184 397.5 87.3125C396.757 88.1478 396.757 88.1478 396 89C395.34 88.67 394.68 88.34 394 88C395.32 85.36 396.64 82.72 398 80Z" fill="#7D031D"/>
<path d="M264 679C263 682 263 682 260.562 683.75C259.294 684.369 259.294 684.369 258 685C257.34 684.67 256.68 684.34 256 684C261.75 679 261.75 679 264 679Z" fill="#FB0F44"/>
<path d="M408 212C407.34 213.98 406.68 215.96 406 218C404.68 217.34 403.36 216.68 402 216C405.75 212 405.75 212 408 212Z" fill="#FAF9FA"/>
<path d="M0 462C2 463 2 463 2 463L0 462Z" fill="#7D031D"/>
</svg>
